<svg viewBox="0 0 329.98699951171875 199.9865264892578" xmlns="http://www.w3.org/2000/svg"><g><g><g><g><g><line x1="50" y1="177.987" x2="45" y2="177.987" style="visibility: inherit;" fill="rgb(0, 0, 0)" stroke="rgb(204, 204, 204)" stroke-width="1px"></line><line x1="50" y1="158.21066666666664" x2="45" y2="158.21066666666664" style="visibility: inherit;" fill="rgb(0, 0, 0)" stroke="rgb(204, 204, 204)" stroke-width="1px"></line><line x1="50" y1="138.43433333333329" x2="45" y2="138.43433333333329" style="visibility: inherit;" fill="rgb(0, 0, 0)" stroke="rgb(204, 204, 204)" stroke-width="1px"></line><line x1="50" y1="118.65800000000003" x2="45" y2="118.65800000000003" style="visibility: inherit;" fill="rgb(0, 0, 0)" stroke="rgb(204, 204, 204)" stroke-width="1px"></line><line x1="50" y1="98.88166666666667" x2="45" y2="98.88166666666667" style="visibility: inherit;" fill="rgb(0, 0, 0)" stroke="rgb(204, 204, 204)" stroke-width="1px"></line><line x1="50" y1="79.10533333333332" x2="45" y2="79.10533333333332" style="visibility: inherit;" fill="rgb(0, 0, 0)" stroke="rgb(204, 204, 204)" stroke-width="1px"></line><line x1="50" y1="59.328999999999965" x2="45" y2="59.328999999999965" style="visibility: inherit;" fill="rgb(0, 0, 0)" stroke="rgb(204, 204, 204)" stroke-width="1px"></line><line x1="50" y1="39.5526666666666" x2="45" y2="39.5526666666666" style="visibility: inherit;" fill="rgb(0, 0, 0)" stroke="rgb(204, 204, 204)" stroke-width="1px"></line><line x1="50" y1="19.77633333333324" x2="45" y2="19.77633333333324" style="visibility: inherit;" fill="rgb(0, 0, 0)" stroke="rgb(204, 204, 204)" stroke-width="1px"></line><line x1="50" y1="0" x2="45" y2="0" style="visibility: inherit;" fill="rgb(0, 0, 0)" stroke="rgb(204, 204, 204)" stroke-width="1px"></line></g><g transform="translate(40, 0)"><text x="0" y="177.987" dx="0em" dy="0.3em" style="text-anchor: end; visibility: hidden; font-family: Roboto, sans-serif; font-size: 12px; font-weight: 200;" fill="rgb(50, 49, 63)" stroke="none" stroke-width="1px">0.52</text><text x="0" y="158.21066666666664" dx="0em" dy="0.3em" style="text-anchor: end; visibility: inherit; font-family: Roboto, sans-serif; font-size: 12px; font-weight: 200;" fill="rgb(50, 49, 63)" stroke="none" stroke-width="1px">0.54</text><text x="0" y="138.43433333333329" dx="0em" dy="0.3em" style="text-anchor: end; visibility: hidden; font-family: Roboto, sans-serif; font-size: 12px; font-weight: 200;" fill="rgb(50, 49, 63)" stroke="none" stroke-width="1px">0.56</text><text x="0" y="118.65800000000003" dx="0em" dy="0.3em" style="text-anchor: end; visibility: inherit; font-family: Roboto, sans-serif; font-size: 12px; font-weight: 200;" fill="rgb(50, 49, 63)" stroke="none" stroke-width="1px">0.58</text><text x="0" y="98.88166666666667" dx="0em" dy="0.3em" style="text-anchor: end; visibility: hidden; font-family: Roboto, sans-serif; font-size: 12px; font-weight: 200;" fill="rgb(50, 49, 63)" stroke="none" stroke-width="1px">0.6</text><text x="0" y="79.10533333333332" dx="0em" dy="0.3em" style="text-anchor: end; visibility: inherit; font-family: Roboto, sans-serif; font-size: 12px; font-weight: 200;" fill="rgb(50, 49, 63)" stroke="none" stroke-width="1px">0.62</text><text x="0" y="59.328999999999965" dx="0em" dy="0.3em" style="text-anchor: end; visibility: hidden; font-family: Roboto, sans-serif; font-size: 12px; font-weight: 200;" fill="rgb(50, 49, 63)" stroke="none" stroke-width="1px">0.64</text><text x="0" y="39.5526666666666" dx="0em" dy="0.3em" style="text-anchor: end; visibility: inherit; font-family: Roboto, sans-serif; font-size: 12px; font-weight: 200;" fill="rgb(50, 49, 63)" stroke="none" stroke-width="1px">0.66</text><text x="0" y="19.77633333333324" dx="0em" dy="0.3em" style="text-anchor: end; visibility: hidden; font-family: Roboto, sans-serif; font-size: 12px; font-weight: 200;" fill="rgb(50, 49, 63)" stroke="none" stroke-width="1px">0.68</text><text x="0" y="0" dx="0em" dy="0.3em" style="text-anchor: end; visibility: hidden; font-family: Roboto, sans-serif; font-size: 12px; font-weight: 200;" fill="rgb(50, 49, 63)" stroke="none" stroke-width="1px">0.7</text></g><line x1="50" y1="0" x2="50" y2="177.987" fill="rgb(0, 0, 0)" stroke="rgb(204, 204, 204)" stroke-width="1px"></line></g></g><g transform="translate(50, 0)" clip-path="url(#clip_0)"><clipPath id="clip_0"><rect width="279" height="177"></rect></clipPath><g><g><g><line x1="0" y1="0" x2="0" y2="177.987" fill="rgb(0, 0, 0)" stroke="rgb(60, 60, 60)" stroke-width="1px" opacity="0.25"></line><line x1="39.99814285714286" y1="0" x2="39.99814285714286" y2="177.987" fill="rgb(0, 0, 0)" stroke="rgb(60, 60, 60)" stroke-width="1px" opacity="0.25"></line><line x1="79.99628571428572" y1="0" x2="79.99628571428572" y2="177.987" fill="rgb(0, 0, 0)" stroke="rgb(60, 60, 60)" stroke-width="1px" opacity="0.25"></line><line x1="119.99442857142857" y1="0" x2="119.99442857142857" y2="177.987" fill="rgb(0, 0, 0)" stroke="rgb(60, 60, 60)" stroke-width="1px" opacity="0.25"></line><line x1="159.99257142857144" y1="0" x2="159.99257142857144" y2="177.987" fill="rgb(0, 0, 0)" stroke="rgb(60, 60, 60)" stroke-width="1px" opacity="0.25"></line><line x1="199.99071428571432" y1="0" x2="199.99071428571432" y2="177.987" fill="rgb(0, 0, 0)" stroke="rgb(60, 60, 60)" stroke-width="1px" opacity="0.25"></line><line x1="239.98885714285714" y1="0" x2="239.98885714285714" y2="177.987" fill="rgb(0, 0, 0)" stroke="rgb(60, 60, 60)" stroke-width="1px" opacity="0.25"></line><line x1="279.987" y1="0" x2="279.987" y2="177.987" fill="rgb(0, 0, 0)" stroke="rgb(60, 60, 60)" stroke-width="1px" opacity="0.25"></line></g><g><line x1="0" y1="177.987" x2="279.987" y2="177.987" fill="rgb(0, 0, 0)" stroke="rgb(60, 60, 60)" stroke-width="1px" opacity="0.25"></line><line x1="0" y1="158.21066666666664" x2="279.987" y2="158.21066666666664" fill="rgb(0, 0, 0)" stroke="rgb(60, 60, 60)" stroke-width="1px" opacity="0.25"></line><line x1="0" y1="138.43433333333329" x2="279.987" y2="138.43433333333329" fill="rgb(0, 0, 0)" stroke="rgb(60, 60, 60)" stroke-width="1px" opacity="0.25"></line><line x1="0" y1="118.65800000000003" x2="279.987" y2="118.65800000000003" fill="rgb(0, 0, 0)" stroke="rgb(60, 60, 60)" stroke-width="1px" opacity="0.25"></line><line x1="0" y1="98.88166666666667" x2="279.987" y2="98.88166666666667" fill="rgb(0, 0, 0)" stroke="rgb(60, 60, 60)" stroke-width="1px" opacity="0.25"></line><line x1="0" y1="79.10533333333332" x2="279.987" y2="79.10533333333332" fill="rgb(0, 0, 0)" stroke="rgb(60, 60, 60)" stroke-width="1px" opacity="0.25"></line><line x1="0" y1="59.328999999999965" x2="279.987" y2="59.328999999999965" fill="rgb(0, 0, 0)" stroke="rgb(60, 60, 60)" stroke-width="1px" opacity="0.25"></line><line x1="0" y1="39.5526666666666" x2="279.987" y2="39.5526666666666" fill="rgb(0, 0, 0)" stroke="rgb(60, 60, 60)" stroke-width="1px" opacity="0.25"></line><line x1="0" y1="19.77633333333324" x2="279.987" y2="19.77633333333324" fill="rgb(0, 0, 0)" stroke="rgb(60, 60, 60)" stroke-width="1px" opacity="0.25"></line><line x1="0" y1="0" x2="279.987" y2="0" fill="rgb(0, 0, 0)" stroke="rgb(60, 60, 60)" stroke-width="1px" opacity="0.25"></line></g></g></g><g><g><line x1="0" y1="692.1716666666669" x2="279.987" y2="692.1716666666669" fill="rgb(0, 0, 0)" stroke="rgb(153, 153, 153)" stroke-width="1.5px"></line></g></g><g><g><line x1="39.99814285714286" y1="0" x2="39.99814285714286" y2="177.987" fill="rgb(0, 0, 0)" stroke="rgb(153, 153, 153)" stroke-width="1.5px"></line></g></g><g><g><g><g><g><path stroke="rgb(0, 119, 187)" stroke-width="2px" d="M39.99814285714286,215.21571985761327L47.99777142857143,165.7618494240443L55.997400000000006,150.39722601751487L63.99702857142857,146.6131664174795L71.99665714285715,128.60617269059023L79.99628571428572,100.38874838133653L87.99591428571429,88.31888074954348L95.99554285714287,83.16474686344462L103.99517142857144,81.99034695704775L111.99480000000001,70.11621264298755L119.99442857142857,59.905723122556985L127.99405714285714,52.66382611870763L135.99368571428573,49.564803661704026L143.9933142857143,58.53564883649346L151.99294285714285,45.61760349452493L159.99257142857144,38.40829924126463L167.9922,35.1787879057725L175.99182857142858,33.64563199063139L183.99145714285714,53.47935214022793L191.99108571428573,43.92130701224007L199.99071428571432,33.808713619708975L207.99034285714288,27.74115758419034L215.98997142857147,83.98027288496493L223.98960000000002,69.52901268978911L231.9892285714286,52.92480387568472L239.98885714285714,40.07200297296044L247.98848571428573,33.286758105754814L255.9881142857143,104.56427461683748L263.98774285714285,89.52587340652943L271.98737142857146,63.82027160108087" style="fill: none;" fill="none"></path></g><g><path stroke="rgb(51, 187, 238)" stroke-width="2px" d="M39.99814285714286,197.437111137112L47.99777142857143,147.5917740680774L55.997400000000006,130.987565253973L63.99702857142857,126.42057238300642L71.99665714285715,111.93671943724155L79.99628571428572,87.66643635710078L87.99591428571429,74.68320551395414L95.99554285714287,70.47502758979795L103.99517142857144,69.36593106071153L111.99480000000001,58.405159958004916L119.99442857142857,46.498373955289495L127.99405714285714,40.92018068313595L135.99368571428573,37.91899541596569L143.9933142857143,47.99899605790771L151.99294285714285,35.929069488048526L159.99257142857144,29.01339468042053L167.9922,25.22933508038517L175.99182857142858,24.152831301887794L183.99145714285714,46.498373955289495L191.99108571428573,34.23277300576365L199.99071428571432,27.51277257780231L207.99034285714288,21.93457930564877L215.98997142857147,76.6404797532161L223.98960000000002,59.7426414934794L231.9892285714286,42.3880921590328L239.98885714285714,33.3846542336543L247.98848571428573,26.925631562670027L255.9881142857143,98.65985914846259L263.98774285714285,75.43348709623018L271.98737142857146,57.42655230740703" style="fill: none;" fill="none"></path></g><g><path stroke="rgb(0, 153, 136)" stroke-width="2px" d="M39.99814285714286,212.5407862556974L47.99777142857143,161.87989369610946L55.997400000000006,146.05855921487014L63.99702857142857,142.79645512878895L71.99665714285715,124.49589089433353L79.99628571428572,99.14916297376156L87.99591428571429,88.48202131668725L95.99554285714287,81.85985807855921L103.99517142857144,81.20747262418269L111.99480000000001,70.89914591391879L119.99442857142857,60.3950858859221L127.99405714285714,52.76166330854095L135.99368571428573,50.44557412246859L143.9933142857143,56.447885718742974L151.99294285714285,48.71662595152851L159.99257142857144,39.811025215983356L167.9922,35.113543466528235L175.99182857142858,33.35200254499908L183.99145714285714,55.46921913007892L191.99108571428573,43.72557369450726L199.99071428571432,35.37452122350531L207.99034285714288,27.675913144946072L215.98997142857147,89.55852509518462L223.98960000000002,70.93173866450785L231.9892285714286,57.13292286177473L239.98885714285714,39.45221026917295L247.98848571428573,34.46115801215168L255.9881142857143,119.63532751580078L263.98774285714285,86.42685094952581L271.98737142857146,67.66963457842667" style="fill: none;" fill="none"></path></g><g><path stroke="rgb(255, 112, 67)" stroke-width="2px" d="M39.99814285714286,198.67672601372004L47.99777142857143,147.91799626429875L55.997400000000006,131.60735795776048L63.99702857142857,127.66015779058138L71.99665714285715,111.25168229420979L79.99628571428572,86.8509103355805L87.99591428571429,75.10726490000883L95.99554285714287,70.96439035316307L103.99517142857144,70.24670152147608L111.99480000000001,58.24207832892733L119.99442857142857,46.824596151510846L127.99405714285714,40.33298072993752L135.99368571428573,39.22382526278492L143.9933142857143,47.411796104709275L151.99294285714285,36.026965615948015L159.99257142857144,30.709691162705386L167.9922,26.273187170227324L175.99182857142858,25.62074277778462L183.99145714285714,44.05179589072861L191.99108571428573,33.35200254499908L199.99071428571432,27.02346875250337L207.99034285714288,22.293394252459173L215.98997142857147,77.09719082792598L223.98960000000002,63.03739726821579L231.9892285714286,44.11704032997288L239.98885714285714,33.319409794410035L247.98848571428573,28.426194727222097L255.9881142857143,98.8555924661954L263.98774285714285,82.28397640268005L271.98737142857146,58.86187103271481" style="fill: none;" fill="none"></path></g></g></g></g></g></g><g transform="translate(50, 177)" clip-path="url(#clip_1)"><clipPath id="clip_1"><rect width="279" height="21"></rect></clipPath><g><g><line x1="0" y1="0" x2="0" y2="5" style="visibility: inherit;" fill="rgb(0, 0, 0)" stroke="rgb(204, 204, 204)" stroke-width="1px"></line><line x1="39.99814285714286" y1="0" x2="39.99814285714286" y2="5" style="visibility: inherit;" fill="rgb(0, 0, 0)" stroke="rgb(204, 204, 204)" stroke-width="1px"></line><line x1="79.99628571428572" y1="0" x2="79.99628571428572" y2="5" style="visibility: inherit;" fill="rgb(0, 0, 0)" stroke="rgb(204, 204, 204)" stroke-width="1px"></line><line x1="119.99442857142857" y1="0" x2="119.99442857142857" y2="5" style="visibility: inherit;" fill="rgb(0, 0, 0)" stroke="rgb(204, 204, 204)" stroke-width="1px"></line><line x1="159.99257142857144" y1="0" x2="159.99257142857144" y2="5" style="visibility: inherit;" fill="rgb(0, 0, 0)" stroke="rgb(204, 204, 204)" stroke-width="1px"></line><line x1="199.99071428571432" y1="0" x2="199.99071428571432" y2="5" style="visibility: inherit;" fill="rgb(0, 0, 0)" stroke="rgb(204, 204, 204)" stroke-width="1px"></line><line x1="239.98885714285714" y1="0" x2="239.98885714285714" y2="5" style="visibility: inherit;" fill="rgb(0, 0, 0)" stroke="rgb(204, 204, 204)" stroke-width="1px"></line><line x1="279.987" y1="0" x2="279.987" y2="5" style="visibility: inherit;" fill="rgb(0, 0, 0)" stroke="rgb(204, 204, 204)" stroke-width="1px"></line></g><g transform="translate(0, 8)"><text x="0" y="0" dx="0em" dy="0.95em" style="text-anchor: middle; visibility: hidden; font-family: Roboto, sans-serif; font-size: 12px; font-weight: 200;" fill="rgb(50, 49, 63)" stroke="none" stroke-width="1px">-5</text><text x="39.99814285714286" y="0" dx="0em" dy="0.95em" style="text-anchor: middle; visibility: inherit; font-family: Roboto, sans-serif; font-size: 12px; font-weight: 200;" fill="rgb(50, 49, 63)" stroke="none" stroke-width="1px">0</text><text x="79.99628571428572" y="0" dx="0em" dy="0.95em" style="text-anchor: middle; visibility: inherit; font-family: Roboto, sans-serif; font-size: 12px; font-weight: 200;" fill="rgb(50, 49, 63)" stroke="none" stroke-width="1px">5</text><text x="119.99442857142857" y="0" dx="0em" dy="0.95em" style="text-anchor: middle; visibility: inherit; font-family: Roboto, sans-serif; font-size: 12px; font-weight: 200;" fill="rgb(50, 49, 63)" stroke="none" stroke-width="1px">10</text><text x="159.99257142857144" y="0" dx="0em" dy="0.95em" style="text-anchor: middle; visibility: inherit; font-family: Roboto, sans-serif; font-size: 12px; font-weight: 200;" fill="rgb(50, 49, 63)" stroke="none" stroke-width="1px">15</text><text x="199.99071428571432" y="0" dx="0em" dy="0.95em" style="text-anchor: middle; visibility: inherit; font-family: Roboto, sans-serif; font-size: 12px; font-weight: 200;" fill="rgb(50, 49, 63)" stroke="none" stroke-width="1px">20</text><text x="239.98885714285714" y="0" dx="0em" dy="0.95em" style="text-anchor: middle; visibility: inherit; font-family: Roboto, sans-serif; font-size: 12px; font-weight: 200;" fill="rgb(50, 49, 63)" stroke="none" stroke-width="1px">25</text><text x="279.987" y="0" dx="0em" dy="0.95em" style="text-anchor: middle; visibility: hidden; font-family: Roboto, sans-serif; font-size: 12px; font-weight: 200;" fill="rgb(50, 49, 63)" stroke="none" stroke-width="1px">30</text></g><line x1="0" y1="0" x2="279.987" y2="0" fill="rgb(0, 0, 0)" stroke="rgb(204, 204, 204)" stroke-width="1px"></line></g></g></g></g></svg>