<svg viewBox="0 0 329.98699951171875 199.9865264892578" xmlns="http://www.w3.org/2000/svg"><g><g><g><g><g><line x1="50" y1="177.987" x2="45" y2="177.987" style="visibility: inherit;" fill="rgb(0, 0, 0)" stroke="rgb(204, 204, 204)" stroke-width="1px"></line><line x1="50" y1="160.18829999999997" x2="45" y2="160.18829999999997" style="visibility: inherit;" fill="rgb(0, 0, 0)" stroke="rgb(204, 204, 204)" stroke-width="1px"></line><line x1="50" y1="142.38959999999997" x2="45" y2="142.38959999999997" style="visibility: inherit;" fill="rgb(0, 0, 0)" stroke="rgb(204, 204, 204)" stroke-width="1px"></line><line x1="50" y1="124.59089999999995" x2="45" y2="124.59089999999995" style="visibility: inherit;" fill="rgb(0, 0, 0)" stroke="rgb(204, 204, 204)" stroke-width="1px"></line><line x1="50" y1="106.79220000000001" x2="45" y2="106.79220000000001" style="visibility: inherit;" fill="rgb(0, 0, 0)" stroke="rgb(204, 204, 204)" stroke-width="1px"></line><line x1="50" y1="88.9935" x2="45" y2="88.9935" style="visibility: inherit;" fill="rgb(0, 0, 0)" stroke="rgb(204, 204, 204)" stroke-width="1px"></line><line x1="50" y1="71.19479999999999" x2="45" y2="71.19479999999999" style="visibility: inherit;" fill="rgb(0, 0, 0)" stroke="rgb(204, 204, 204)" stroke-width="1px"></line><line x1="50" y1="53.39609999999997" x2="45" y2="53.39609999999997" style="visibility: inherit;" fill="rgb(0, 0, 0)" stroke="rgb(204, 204, 204)" stroke-width="1px"></line><line x1="50" y1="35.59739999999993" x2="45" y2="35.59739999999993" style="visibility: inherit;" fill="rgb(0, 0, 0)" stroke="rgb(204, 204, 204)" stroke-width="1px"></line><line x1="50" y1="17.798699999999915" x2="45" y2="17.798699999999915" style="visibility: inherit;" fill="rgb(0, 0, 0)" stroke="rgb(204, 204, 204)" stroke-width="1px"></line><line x1="50" y1="0" x2="45" y2="0" style="visibility: inherit;" fill="rgb(0, 0, 0)" stroke="rgb(204, 204, 204)" stroke-width="1px"></line></g><g transform="translate(40, 0)"><text x="0" y="177.987" dx="0em" dy="0.3em" style="text-anchor: end; visibility: hidden; font-family: Roboto, sans-serif; font-size: 12px; font-weight: 200;" fill="rgb(50, 49, 63)" stroke="none" stroke-width="1px">0.5</text><text x="0" y="160.18829999999997" dx="0em" dy="0.3em" style="text-anchor: end; visibility: inherit; font-family: Roboto, sans-serif; font-size: 12px; font-weight: 200;" fill="rgb(50, 49, 63)" stroke="none" stroke-width="1px">0.52</text><text x="0" y="142.38959999999997" dx="0em" dy="0.3em" style="text-anchor: end; visibility: hidden; font-family: Roboto, sans-serif; font-size: 12px; font-weight: 200;" fill="rgb(50, 49, 63)" stroke="none" stroke-width="1px">0.54</text><text x="0" y="124.59089999999995" dx="0em" dy="0.3em" style="text-anchor: end; visibility: inherit; font-family: Roboto, sans-serif; font-size: 12px; font-weight: 200;" fill="rgb(50, 49, 63)" stroke="none" stroke-width="1px">0.56</text><text x="0" y="106.79220000000001" dx="0em" dy="0.3em" style="text-anchor: end; visibility: hidden; font-family: Roboto, sans-serif; font-size: 12px; font-weight: 200;" fill="rgb(50, 49, 63)" stroke="none" stroke-width="1px">0.58</text><text x="0" y="88.9935" dx="0em" dy="0.3em" style="text-anchor: end; visibility: inherit; font-family: Roboto, sans-serif; font-size: 12px; font-weight: 200;" fill="rgb(50, 49, 63)" stroke="none" stroke-width="1px">0.6</text><text x="0" y="71.19479999999999" dx="0em" dy="0.3em" style="text-anchor: end; visibility: hidden; font-family: Roboto, sans-serif; font-size: 12px; font-weight: 200;" fill="rgb(50, 49, 63)" stroke="none" stroke-width="1px">0.62</text><text x="0" y="53.39609999999997" dx="0em" dy="0.3em" style="text-anchor: end; visibility: inherit; font-family: Roboto, sans-serif; font-size: 12px; font-weight: 200;" fill="rgb(50, 49, 63)" stroke="none" stroke-width="1px">0.64</text><text x="0" y="35.59739999999993" dx="0em" dy="0.3em" style="text-anchor: end; visibility: hidden; font-family: Roboto, sans-serif; font-size: 12px; font-weight: 200;" fill="rgb(50, 49, 63)" stroke="none" stroke-width="1px">0.66</text><text x="0" y="17.798699999999915" dx="0em" dy="0.3em" style="text-anchor: end; visibility: inherit; font-family: Roboto, sans-serif; font-size: 12px; font-weight: 200;" fill="rgb(50, 49, 63)" stroke="none" stroke-width="1px">0.68</text><text x="0" y="0" dx="0em" dy="0.3em" style="text-anchor: end; visibility: hidden; font-family: Roboto, sans-serif; font-size: 12px; font-weight: 200;" fill="rgb(50, 49, 63)" stroke="none" stroke-width="1px">0.7</text></g><line x1="50" y1="0" x2="50" y2="177.987" fill="rgb(0, 0, 0)" stroke="rgb(204, 204, 204)" stroke-width="1px"></line></g></g><g transform="translate(50, 0)" clip-path="url(#clip_0)"><clipPath id="clip_0"><rect width="279" height="177"></rect></clipPath><g><g><g><line x1="0" y1="0" x2="0" y2="177.987" fill="rgb(0, 0, 0)" stroke="rgb(60, 60, 60)" stroke-width="1px" opacity="0.25"></line><line x1="39.99814285714286" y1="0" x2="39.99814285714286" y2="177.987" fill="rgb(0, 0, 0)" stroke="rgb(60, 60, 60)" stroke-width="1px" opacity="0.25"></line><line x1="79.99628571428572" y1="0" x2="79.99628571428572" y2="177.987" fill="rgb(0, 0, 0)" stroke="rgb(60, 60, 60)" stroke-width="1px" opacity="0.25"></line><line x1="119.99442857142857" y1="0" x2="119.99442857142857" y2="177.987" fill="rgb(0, 0, 0)" stroke="rgb(60, 60, 60)" stroke-width="1px" opacity="0.25"></line><line x1="159.99257142857144" y1="0" x2="159.99257142857144" y2="177.987" fill="rgb(0, 0, 0)" stroke="rgb(60, 60, 60)" stroke-width="1px" opacity="0.25"></line><line x1="199.99071428571432" y1="0" x2="199.99071428571432" y2="177.987" fill="rgb(0, 0, 0)" stroke="rgb(60, 60, 60)" stroke-width="1px" opacity="0.25"></line><line x1="239.98885714285714" y1="0" x2="239.98885714285714" y2="177.987" fill="rgb(0, 0, 0)" stroke="rgb(60, 60, 60)" stroke-width="1px" opacity="0.25"></line><line x1="279.987" y1="0" x2="279.987" y2="177.987" fill="rgb(0, 0, 0)" stroke="rgb(60, 60, 60)" stroke-width="1px" opacity="0.25"></line></g><g><line x1="0" y1="177.987" x2="279.987" y2="177.987" fill="rgb(0, 0, 0)" stroke="rgb(60, 60, 60)" stroke-width="1px" opacity="0.25"></line><line x1="0" y1="160.18829999999997" x2="279.987" y2="160.18829999999997" fill="rgb(0, 0, 0)" stroke="rgb(60, 60, 60)" stroke-width="1px" opacity="0.25"></line><line x1="0" y1="142.38959999999997" x2="279.987" y2="142.38959999999997" fill="rgb(0, 0, 0)" stroke="rgb(60, 60, 60)" stroke-width="1px" opacity="0.25"></line><line x1="0" y1="124.59089999999995" x2="279.987" y2="124.59089999999995" fill="rgb(0, 0, 0)" stroke="rgb(60, 60, 60)" stroke-width="1px" opacity="0.25"></line><line x1="0" y1="106.79220000000001" x2="279.987" y2="106.79220000000001" fill="rgb(0, 0, 0)" stroke="rgb(60, 60, 60)" stroke-width="1px" opacity="0.25"></line><line x1="0" y1="88.9935" x2="279.987" y2="88.9935" fill="rgb(0, 0, 0)" stroke="rgb(60, 60, 60)" stroke-width="1px" opacity="0.25"></line><line x1="0" y1="71.19479999999999" x2="279.987" y2="71.19479999999999" fill="rgb(0, 0, 0)" stroke="rgb(60, 60, 60)" stroke-width="1px" opacity="0.25"></line><line x1="0" y1="53.39609999999997" x2="279.987" y2="53.39609999999997" fill="rgb(0, 0, 0)" stroke="rgb(60, 60, 60)" stroke-width="1px" opacity="0.25"></line><line x1="0" y1="35.59739999999993" x2="279.987" y2="35.59739999999993" fill="rgb(0, 0, 0)" stroke="rgb(60, 60, 60)" stroke-width="1px" opacity="0.25"></line><line x1="0" y1="17.798699999999915" x2="279.987" y2="17.798699999999915" fill="rgb(0, 0, 0)" stroke="rgb(60, 60, 60)" stroke-width="1px" opacity="0.25"></line><line x1="0" y1="0" x2="279.987" y2="0" fill="rgb(0, 0, 0)" stroke="rgb(60, 60, 60)" stroke-width="1px" opacity="0.25"></line></g></g></g><g><g><line x1="0" y1="622.9545" x2="279.987" y2="622.9545" fill="rgb(0, 0, 0)" stroke="rgb(153, 153, 153)" stroke-width="1.5px"></line></g></g><g><g><line x1="39.99814285714286" y1="0" x2="39.99814285714286" y2="177.987" fill="rgb(0, 0, 0)" stroke="rgb(153, 153, 153)" stroke-width="1.5px"></line></g></g><g><g><g><g><g><path stroke="rgb(0, 119, 187)" stroke-width="2px" d="M39.99814285714286,193.69414787185192L47.99777142857143,149.18566448163986L55.997400000000006,135.35750341576338L63.99702857142857,131.95184977573155L71.99665714285715,115.7455554215312L79.99628571428572,90.34987354320286L87.99591428571429,79.48699267458913L95.99554285714287,74.84827217710016L103.99517142857144,73.79131226134298L111.99480000000001,63.10459137868879L119.99442857142857,53.915150810301284L127.99405714285714,47.39744350683687L135.99368571428573,44.60832329553364L143.9933142857143,52.682083952844124L151.99294285714285,41.05584314507242L159.99257142857144,34.567469317138155L167.9922,31.660909115195235L175.99182857142858,30.281068791568238L183.99145714285714,48.131416926205134L191.99108571428573,39.529176311016045L199.99071428571432,30.427842257738074L207.99034285714288,24.967041825771293L215.98997142857147,75.58224559646843L223.98960000000002,62.5761114208102L231.9892285714286,47.63232348811624L239.98885714285714,36.06480267566438L247.98848571428573,29.958082295179327L255.9881142857143,94.10784715515373L263.98774285714285,80.57328606587646L271.98737142857146,57.43824444097278" style="fill: none;" fill="none"></path></g><g><path stroke="rgb(204, 51, 17)" stroke-width="2px" d="M39.99814285714286,210.2820691513717L47.99777142857143,162.3385721234679L55.997400000000006,148.15809108567237L63.99702857142857,143.13766409647465L71.99665714285715,128.10576964867116L79.99628571428572,103.85510115694997L87.99591428571429,91.7591534308791L95.99554285714287,86.2983529989123L103.99517142857144,85.9753665025234L111.99480000000001,74.84827217710016L119.99442857142857,64.19088476997612L127.99405714285714,58.78880433332918L135.99368571428573,56.76299101692436L143.9933142857143,66.0992050514817L151.99294285714285,52.300430505394914L159.99257142857144,45.10741673362253L167.9922,41.613656578481155L175.99182857142858,40.321869725704154L183.99145714285714,61.07883110654352L191.99108571428573,51.5957905615568L199.99071428571432,40.380589721023995L207.99034285714288,34.743629303097684L215.98997142857147,86.73872644168137L223.98960000000002,76.55109899711607L231.9892285714286,56.26389757883547L239.98885714285714,43.34586991828676L247.98848571428573,38.5603229103684L255.9881142857143,114.74736854535341L263.98774285714285,91.87659342151878L271.98737142857146,69.91589865875243" style="fill: none;" fill="none"></path></g><g><path stroke="rgb(51, 187, 238)" stroke-width="2px" d="M39.99814285714286,177.69340002340078L47.99777142857143,132.83259666126966L55.997400000000006,117.8888087285757L63.99702857142857,113.77851514470576L71.99665714285715,100.74304749351738L79.99628571428572,78.8997927213907L87.99591428571429,67.21488496255873L95.99554285714287,63.42752483081816L103.99517142857144,62.42933795464037L111.99480000000001,52.564643962204435L119.99442857142857,41.84853655976053L127.99405714285714,36.82816261482235L135.99368571428573,34.127095874369104L143.9933142857143,43.199096452116926L151.99294285714285,32.33616253924366L159.99257142857144,26.11205521237846L167.9922,22.706401572346646L175.99182857142858,21.737548171699007L183.99145714285714,41.84853655976053L191.99108571428573,30.80949570518728L199.99071428571432,24.761495320022068L207.99034285714288,19.741121375083882L215.98997142857147,68.97643177789448L223.98960000000002,53.76837734413145L231.9892285714286,38.1492829431295L239.98885714285714,30.046188810288864L247.98848571428573,24.233068406403024L255.9881142857143,88.79387323361632L263.98774285714285,67.89013838660715L271.98737142857146,51.683897076666334" style="fill: none;" fill="none"></path></g><g><path stroke="rgb(0, 153, 136)" stroke-width="2px" d="M39.99814285714286,191.28670763012767L47.99777142857143,145.6919043264985L55.997400000000006,131.4527032933831L63.99702857142857,128.51680961591006L71.99665714285715,112.04630180490017L79.99628571428572,89.23424667638538L87.99591428571429,79.63381918501852L95.99554285714287,73.6738722707033L103.99517142857144,73.08672536176441L111.99480000000001,63.80923132252691L119.99442857142857,54.35557729732988L127.99405714285714,47.485496977686864L135.99368571428573,45.40101671022175L143.9933142857143,50.80309714686869L151.99294285714285,43.84496335637565L159.99257142857144,35.82992269438501L167.9922,31.60218911987539L175.99182857142858,30.01680229049917L183.99145714285714,49.92229721707103L191.99108571428573,39.353016325056515L199.99071428571432,31.837069101154764L207.99034285714288,24.90832183045145L215.98997142857147,80.60267258566616L223.98960000000002,63.83856479805706L231.9892285714286,51.41963057559727L239.98885714285714,35.50698924225565L247.98848571428573,31.015042210936507L255.9881142857143,107.67179476422069L263.98774285714285,77.78416585457323L271.98737142857146,60.90267112058399" style="fill: none;" fill="none"></path></g><g><path stroke="rgb(0, 119, 187)" stroke-width="2px" d="M39.99814285714286,178.80905341234802L47.99777142857143,133.12619663786887L55.997400000000006,118.44662216198444L63.99702857142857,114.89414201152324L71.99665714285715,100.1265140647888L79.99628571428572,78.16581930202244L87.99591428571429,67.59653841000794L95.99554285714287,63.86795131784675L103.99517142857144,63.22203136932848L111.99480000000001,52.4178704960346L119.99442857142857,42.14213653635974L127.99405714285714,36.29968265694376L135.99368571428573,35.301442736506424L143.9933142857143,42.67061649423834L151.99294285714285,32.424269054353196L159.99257142857144,27.63872204643484L167.9922,23.645868453204592L175.99182857142858,23.05866850000616L183.99145714285714,39.646616301655726L191.99108571428573,30.01680229049917L199.99071428571432,24.321121877253017L207.99034285714288,20.064054827213248L215.98997142857147,69.38747174513338L223.98960000000002,56.733657541394216L231.9892285714286,39.705336296975574L239.98885714285714,29.987468814969024L247.98848571428573,25.583575254499873L255.9881142857143,88.97003321957585L263.98774285714285,74.05557876241205L271.98737142857146,52.975683929443335" style="fill: none;" fill="none"></path></g></g></g></g></g></g><g transform="translate(50, 177)" clip-path="url(#clip_1)"><clipPath id="clip_1"><rect width="279" height="21"></rect></clipPath><g><g><line x1="0" y1="0" x2="0" y2="5" style="visibility: inherit;" fill="rgb(0, 0, 0)" stroke="rgb(204, 204, 204)" stroke-width="1px"></line><line x1="39.99814285714286" y1="0" x2="39.99814285714286" y2="5" style="visibility: inherit;" fill="rgb(0, 0, 0)" stroke="rgb(204, 204, 204)" stroke-width="1px"></line><line x1="79.99628571428572" y1="0" x2="79.99628571428572" y2="5" style="visibility: inherit;" fill="rgb(0, 0, 0)" stroke="rgb(204, 204, 204)" stroke-width="1px"></line><line x1="119.99442857142857" y1="0" x2="119.99442857142857" y2="5" style="visibility: inherit;" fill="rgb(0, 0, 0)" stroke="rgb(204, 204, 204)" stroke-width="1px"></line><line x1="159.99257142857144" y1="0" x2="159.99257142857144" y2="5" style="visibility: inherit;" fill="rgb(0, 0, 0)" stroke="rgb(204, 204, 204)" stroke-width="1px"></line><line x1="199.99071428571432" y1="0" x2="199.99071428571432" y2="5" style="visibility: inherit;" fill="rgb(0, 0, 0)" stroke="rgb(204, 204, 204)" stroke-width="1px"></line><line x1="239.98885714285714" y1="0" x2="239.98885714285714" y2="5" style="visibility: inherit;" fill="rgb(0, 0, 0)" stroke="rgb(204, 204, 204)" stroke-width="1px"></line><line x1="279.987" y1="0" x2="279.987" y2="5" style="visibility: inherit;" fill="rgb(0, 0, 0)" stroke="rgb(204, 204, 204)" stroke-width="1px"></line></g><g transform="translate(0, 8)"><text x="0" y="0" dx="0em" dy="0.95em" style="text-anchor: middle; visibility: hidden; font-family: Roboto, sans-serif; font-size: 12px; font-weight: 200;" fill="rgb(50, 49, 63)" stroke="none" stroke-width="1px">-5</text><text x="39.99814285714286" y="0" dx="0em" dy="0.95em" style="text-anchor: middle; visibility: inherit; font-family: Roboto, sans-serif; font-size: 12px; font-weight: 200;" fill="rgb(50, 49, 63)" stroke="none" stroke-width="1px">0</text><text x="79.99628571428572" y="0" dx="0em" dy="0.95em" style="text-anchor: middle; visibility: inherit; font-family: Roboto, sans-serif; font-size: 12px; font-weight: 200;" fill="rgb(50, 49, 63)" stroke="none" stroke-width="1px">5</text><text x="119.99442857142857" y="0" dx="0em" dy="0.95em" style="text-anchor: middle; visibility: inherit; font-family: Roboto, sans-serif; font-size: 12px; font-weight: 200;" fill="rgb(50, 49, 63)" stroke="none" stroke-width="1px">10</text><text x="159.99257142857144" y="0" dx="0em" dy="0.95em" style="text-anchor: middle; visibility: inherit; font-family: Roboto, sans-serif; font-size: 12px; font-weight: 200;" fill="rgb(50, 49, 63)" stroke="none" stroke-width="1px">15</text><text x="199.99071428571432" y="0" dx="0em" dy="0.95em" style="text-anchor: middle; visibility: inherit; font-family: Roboto, sans-serif; font-size: 12px; font-weight: 200;" fill="rgb(50, 49, 63)" stroke="none" stroke-width="1px">20</text><text x="239.98885714285714" y="0" dx="0em" dy="0.95em" style="text-anchor: middle; visibility: inherit; font-family: Roboto, sans-serif; font-size: 12px; font-weight: 200;" fill="rgb(50, 49, 63)" stroke="none" stroke-width="1px">25</text><text x="279.987" y="0" dx="0em" dy="0.95em" style="text-anchor: middle; visibility: hidden; font-family: Roboto, sans-serif; font-size: 12px; font-weight: 200;" fill="rgb(50, 49, 63)" stroke="none" stroke-width="1px">30</text></g><line x1="0" y1="0" x2="279.987" y2="0" fill="rgb(0, 0, 0)" stroke="rgb(204, 204, 204)" stroke-width="1px"></line></g></g></g></g></svg>