<svg viewBox="0 0 329.98699951171875 199.9865264892578" xmlns="http://www.w3.org/2000/svg"><g><g><g><g><g><line x1="41.171875" y1="177.987" x2="36.171875" y2="177.987" style="visibility: inherit;" fill="rgb(0, 0, 0)" stroke="rgb(204, 204, 204)" stroke-width="1px"></line><line x1="41.171875" y1="163.15474999999998" x2="36.171875" y2="163.15474999999998" style="visibility: inherit;" fill="rgb(0, 0, 0)" stroke="rgb(204, 204, 204)" stroke-width="1px"></line><line x1="41.171875" y1="148.3225" x2="36.171875" y2="148.3225" style="visibility: inherit;" fill="rgb(0, 0, 0)" stroke="rgb(204, 204, 204)" stroke-width="1px"></line><line x1="41.171875" y1="133.49025" x2="36.171875" y2="133.49025" style="visibility: inherit;" fill="rgb(0, 0, 0)" stroke="rgb(204, 204, 204)" stroke-width="1px"></line><line x1="41.171875" y1="118.65800000000002" x2="36.171875" y2="118.65800000000002" style="visibility: inherit;" fill="rgb(0, 0, 0)" stroke="rgb(204, 204, 204)" stroke-width="1px"></line><line x1="41.171875" y1="103.82575" x2="36.171875" y2="103.82575" style="visibility: inherit;" fill="rgb(0, 0, 0)" stroke="rgb(204, 204, 204)" stroke-width="1px"></line><line x1="41.171875" y1="88.9935" x2="36.171875" y2="88.9935" style="visibility: inherit;" fill="rgb(0, 0, 0)" stroke="rgb(204, 204, 204)" stroke-width="1px"></line><line x1="41.171875" y1="74.16125000000001" x2="36.171875" y2="74.16125000000001" style="visibility: inherit;" fill="rgb(0, 0, 0)" stroke="rgb(204, 204, 204)" stroke-width="1px"></line><line x1="41.171875" y1="59.32900000000001" x2="36.171875" y2="59.32900000000001" style="visibility: inherit;" fill="rgb(0, 0, 0)" stroke="rgb(204, 204, 204)" stroke-width="1px"></line><line x1="41.171875" y1="44.49675000000004" x2="36.171875" y2="44.49675000000004" style="visibility: inherit;" fill="rgb(0, 0, 0)" stroke="rgb(204, 204, 204)" stroke-width="1px"></line><line x1="41.171875" y1="29.66450000000001" x2="36.171875" y2="29.66450000000001" style="visibility: inherit;" fill="rgb(0, 0, 0)" stroke="rgb(204, 204, 204)" stroke-width="1px"></line><line x1="41.171875" y1="14.832250000000005" x2="36.171875" y2="14.832250000000005" style="visibility: inherit;" fill="rgb(0, 0, 0)" stroke="rgb(204, 204, 204)" stroke-width="1px"></line><line x1="41.171875" y1="0" x2="36.171875" y2="0" style="visibility: inherit;" fill="rgb(0, 0, 0)" stroke="rgb(204, 204, 204)" stroke-width="1px"></line></g><g transform="translate(31.171875, 0)"><text x="0" y="177.987" dx="0em" dy="0.3em" style="text-anchor: end; visibility: hidden; font-family: Roboto, sans-serif; font-size: 12px; font-weight: 200;" fill="rgb(50, 49, 63)" stroke="none" stroke-width="1px">1</text><text x="0" y="163.15474999999998" dx="0em" dy="0.3em" style="text-anchor: end; visibility: inherit; font-family: Roboto, sans-serif; font-size: 12px; font-weight: 200;" fill="rgb(50, 49, 63)" stroke="none" stroke-width="1px">1.1</text><text x="0" y="148.3225" dx="0em" dy="0.3em" style="text-anchor: end; visibility: hidden; font-family: Roboto, sans-serif; font-size: 12px; font-weight: 200;" fill="rgb(50, 49, 63)" stroke="none" stroke-width="1px">1.2</text><text x="0" y="133.49025" dx="0em" dy="0.3em" style="text-anchor: end; visibility: inherit; font-family: Roboto, sans-serif; font-size: 12px; font-weight: 200;" fill="rgb(50, 49, 63)" stroke="none" stroke-width="1px">1.3</text><text x="0" y="118.65800000000002" dx="0em" dy="0.3em" style="text-anchor: end; visibility: hidden; font-family: Roboto, sans-serif; font-size: 12px; font-weight: 200;" fill="rgb(50, 49, 63)" stroke="none" stroke-width="1px">1.4</text><text x="0" y="103.82575" dx="0em" dy="0.3em" style="text-anchor: end; visibility: inherit; font-family: Roboto, sans-serif; font-size: 12px; font-weight: 200;" fill="rgb(50, 49, 63)" stroke="none" stroke-width="1px">1.5</text><text x="0" y="88.9935" dx="0em" dy="0.3em" style="text-anchor: end; visibility: hidden; font-family: Roboto, sans-serif; font-size: 12px; font-weight: 200;" fill="rgb(50, 49, 63)" stroke="none" stroke-width="1px">1.6</text><text x="0" y="74.16125000000001" dx="0em" dy="0.3em" style="text-anchor: end; visibility: inherit; font-family: Roboto, sans-serif; font-size: 12px; font-weight: 200;" fill="rgb(50, 49, 63)" stroke="none" stroke-width="1px">1.7</text><text x="0" y="59.32900000000001" dx="0em" dy="0.3em" style="text-anchor: end; visibility: hidden; font-family: Roboto, sans-serif; font-size: 12px; font-weight: 200;" fill="rgb(50, 49, 63)" stroke="none" stroke-width="1px">1.8</text><text x="0" y="44.49675000000004" dx="0em" dy="0.3em" style="text-anchor: end; visibility: inherit; font-family: Roboto, sans-serif; font-size: 12px; font-weight: 200;" fill="rgb(50, 49, 63)" stroke="none" stroke-width="1px">1.9</text><text x="0" y="29.66450000000001" dx="0em" dy="0.3em" style="text-anchor: end; visibility: hidden; font-family: Roboto, sans-serif; font-size: 12px; font-weight: 200;" fill="rgb(50, 49, 63)" stroke="none" stroke-width="1px">2</text><text x="0" y="14.832250000000005" dx="0em" dy="0.3em" style="text-anchor: end; visibility: inherit; font-family: Roboto, sans-serif; font-size: 12px; font-weight: 200;" fill="rgb(50, 49, 63)" stroke="none" stroke-width="1px">2.1</text><text x="0" y="0" dx="0em" dy="0.3em" style="text-anchor: end; visibility: hidden; font-family: Roboto, sans-serif; font-size: 12px; font-weight: 200;" fill="rgb(50, 49, 63)" stroke="none" stroke-width="1px">2.2</text></g><line x1="41.171875" y1="0" x2="41.171875" y2="177.987" fill="rgb(0, 0, 0)" stroke="rgb(204, 204, 204)" stroke-width="1px"></line></g></g><g transform="translate(41, 0)" clip-path="url(#clip_0)"><clipPath id="clip_0"><rect width="288" height="177"></rect></clipPath><g><g><g><line x1="0" y1="0" x2="0" y2="177.987" fill="rgb(0, 0, 0)" stroke="rgb(60, 60, 60)" stroke-width="1px" opacity="0.25"></line><line x1="41.259303571428575" y1="0" x2="41.259303571428575" y2="177.987" fill="rgb(0, 0, 0)" stroke="rgb(60, 60, 60)" stroke-width="1px" opacity="0.25"></line><line x1="82.51860714285715" y1="0" x2="82.51860714285715" y2="177.987" fill="rgb(0, 0, 0)" stroke="rgb(60, 60, 60)" stroke-width="1px" opacity="0.25"></line><line x1="123.77791071428572" y1="0" x2="123.77791071428572" y2="177.987" fill="rgb(0, 0, 0)" stroke="rgb(60, 60, 60)" stroke-width="1px" opacity="0.25"></line><line x1="165.0372142857143" y1="0" x2="165.0372142857143" y2="177.987" fill="rgb(0, 0, 0)" stroke="rgb(60, 60, 60)" stroke-width="1px" opacity="0.25"></line><line x1="206.29651785714287" y1="0" x2="206.29651785714287" y2="177.987" fill="rgb(0, 0, 0)" stroke="rgb(60, 60, 60)" stroke-width="1px" opacity="0.25"></line><line x1="247.55582142857145" y1="0" x2="247.55582142857145" y2="177.987" fill="rgb(0, 0, 0)" stroke="rgb(60, 60, 60)" stroke-width="1px" opacity="0.25"></line><line x1="288.815125" y1="0" x2="288.815125" y2="177.987" fill="rgb(0, 0, 0)" stroke="rgb(60, 60, 60)" stroke-width="1px" opacity="0.25"></line></g><g><line x1="0" y1="177.987" x2="288.815125" y2="177.987" fill="rgb(0, 0, 0)" stroke="rgb(60, 60, 60)" stroke-width="1px" opacity="0.25"></line><line x1="0" y1="163.15474999999998" x2="288.815125" y2="163.15474999999998" fill="rgb(0, 0, 0)" stroke="rgb(60, 60, 60)" stroke-width="1px" opacity="0.25"></line><line x1="0" y1="148.3225" x2="288.815125" y2="148.3225" fill="rgb(0, 0, 0)" stroke="rgb(60, 60, 60)" stroke-width="1px" opacity="0.25"></line><line x1="0" y1="133.49025" x2="288.815125" y2="133.49025" fill="rgb(0, 0, 0)" stroke="rgb(60, 60, 60)" stroke-width="1px" opacity="0.25"></line><line x1="0" y1="118.65800000000002" x2="288.815125" y2="118.65800000000002" fill="rgb(0, 0, 0)" stroke="rgb(60, 60, 60)" stroke-width="1px" opacity="0.25"></line><line x1="0" y1="103.82575" x2="288.815125" y2="103.82575" fill="rgb(0, 0, 0)" stroke="rgb(60, 60, 60)" stroke-width="1px" opacity="0.25"></line><line x1="0" y1="88.9935" x2="288.815125" y2="88.9935" fill="rgb(0, 0, 0)" stroke="rgb(60, 60, 60)" stroke-width="1px" opacity="0.25"></line><line x1="0" y1="74.16125000000001" x2="288.815125" y2="74.16125000000001" fill="rgb(0, 0, 0)" stroke="rgb(60, 60, 60)" stroke-width="1px" opacity="0.25"></line><line x1="0" y1="59.32900000000001" x2="288.815125" y2="59.32900000000001" fill="rgb(0, 0, 0)" stroke="rgb(60, 60, 60)" stroke-width="1px" opacity="0.25"></line><line x1="0" y1="44.49675000000004" x2="288.815125" y2="44.49675000000004" fill="rgb(0, 0, 0)" stroke="rgb(60, 60, 60)" stroke-width="1px" opacity="0.25"></line><line x1="0" y1="29.66450000000001" x2="288.815125" y2="29.66450000000001" fill="rgb(0, 0, 0)" stroke="rgb(60, 60, 60)" stroke-width="1px" opacity="0.25"></line><line x1="0" y1="14.832250000000005" x2="288.815125" y2="14.832250000000005" fill="rgb(0, 0, 0)" stroke="rgb(60, 60, 60)" stroke-width="1px" opacity="0.25"></line><line x1="0" y1="0" x2="288.815125" y2="0" fill="rgb(0, 0, 0)" stroke="rgb(60, 60, 60)" stroke-width="1px" opacity="0.25"></line></g></g></g><g><g><line x1="0" y1="326.30949999999996" x2="288.815125" y2="326.30949999999996" fill="rgb(0, 0, 0)" stroke="rgb(153, 153, 153)" stroke-width="1.5px"></line></g></g><g><g><line x1="41.259303571428575" y1="0" x2="41.259303571428575" y2="177.987" fill="rgb(0, 0, 0)" stroke="rgb(153, 153, 153)" stroke-width="1.5px"></line></g></g><g><g><g><g><g><path stroke="rgb(0, 119, 187)" stroke-width="2px" d="M41.259303571428575,-30.939026250719998L49.51116428571429,27.900778370022785L57.763025000000006,45.654921899259115L66.01488571428571,50.086858191609394L74.26674642857142,70.97920620423555L82.51860714285715,92.80842192900181L90.77046785714286,101.61794182908535L99.02232857142857,104.94364008855821L107.2741892857143,105.42402658444644L115.52605000000001,116.70098862451314L123.77791071428572,123.60998574924469L132.02977142857142,127.38965446335078L140.28163214285715,128.59559802275896L148.53349285714285,125.73345354747772L156.78535357142857,133.1639995135069L165.0372142857143,137.1639610375166L173.289075,139.60864719015362L181.54093571428572,140.27187724870444L189.79279642857145,128.57621918660402L198.04465714285715,133.968787019372L206.29651785714287,139.3716454384923L214.5483785714286,142.09767834377288L222.80023928571433,102.06464522016049L231.05210000000002,109.09815490347147L239.30396071428575,120.52268607360125L247.55582142857145,130.2433825827837L255.80768214285715,133.86621710282563L264.05954285714284,41.843143726706515L272.31140357142857,56.0063853801489L280.5632642857143,87.76882828068733" style="fill: none;" fill="none"></path></g><g><path stroke="rgb(204, 51, 17)" stroke-width="2px" d="M41.259303571428575,-44.52072600531574L49.51116428571429,15.320165244460139L57.763025000000006,33.5425304527283L66.01488571428571,38.124511273920554L74.26674642857142,59.30230812859538L82.51860714285715,82.0742971597314L90.77046785714286,91.54386446279288L99.02232857142857,95.13034598362447L107.2741892857143,95.66253903967143L115.52605000000001,107.1896931706071L123.77791071428572,114.9190728135109L132.02977142857142,118.68802658718825L140.28163214285715,120.0839216400385L148.53349285714285,117.07491529148818L156.78535357142857,124.64164355319738L165.0372142857143,129.2169054348469L173.289075,131.7565231306553L181.54093571428572,132.56169962775706L189.79279642857145,118.96686257821322L198.04465714285715,124.01084121865034L206.29651785714287,132.1397502244711L214.5483785714286,135.43790083181858L222.80023928571433,93.49442565631868L231.05210000000002,97.15364853841066L239.30396071428575,112.84640373450517L247.55582142857145,124.51652982634306L255.80768214285715,128.58155897539854L264.05954285714284,24.955584265708943L272.31140357142857,49.15913177353146L280.5632642857143,81.32227101069691" style="fill: none;" fill="none"></path></g><g><path stroke="rgb(51, 187, 238)" stroke-width="2px" d="M41.259303571428575,-20.678710489153822L49.51116428571429,38.06930988115074L57.763025000000006,55.62420149010421L66.01488571428571,59.88897763919833L74.26674642857142,80.51016339701415L82.51860714285715,101.28927959692479L90.77046785714286,109.79179700416327L99.02232857142857,112.94331559669972L107.2741892857143,113.41360600185395L115.52605000000001,124.00436981898547L123.77791071428572,130.95394580227136L132.02977142857142,134.3762199769616L140.28163214285715,135.42288930636644L148.53349285714285,132.72696785908937L156.78535357142857,139.30815145981313L165.0372142857143,143.0497343955636L173.289075,145.5136402515769L181.54093571428572,146.00240774047376L189.79279642857145,133.487198186934L198.04465714285715,139.3981675682664L206.29651785714287,143.89205955576895L214.5483785714286,146.75761654508113L222.80023928571433,103.77756813091041L231.05210000000002,112.42302213621139L239.30396071428575,125.30345909816027L247.55582142857145,132.39903056514265L255.80768214285715,136.09695807528496L264.05954285714284,32.35927215498688L272.31140357142857,56.4511084522009L280.5632642857143,82.8233881930709" style="fill: none;" fill="none"></path></g><g><path stroke="rgb(0, 153, 136)" stroke-width="2px" d="M41.259303571428575,-31.19685671496387L49.51116428571429,27.595526337742832L57.763025000000006,45.276415744543094L66.01488571428571,49.56730735075476L74.26674642857142,70.52360905897618L82.51860714285715,91.97476066452268L90.77046785714286,100.89137692463399L99.02232857142857,104.18344512355327L107.2741892857143,104.6361248345375L115.52605000000001,115.95562837076189L123.77791071428572,122.94074400794506L132.02977142857142,126.74191332858801L140.28163214285715,127.84560523700715L148.53349285714285,125.46936386060715L156.78535357142857,131.56475045096875L165.0372142857143,136.10335874927043L173.289075,138.89758889091016L181.54093571428572,139.36605810981987L189.79279642857145,126.7452374355197L198.04465714285715,132.685451885283L206.29651785714287,138.10390531671047L214.5483785714286,141.21155630660058L222.80023928571433,96.34947988224032L231.05210000000002,105.99593210947515L239.30396071428575,117.60562310826779L247.55582142857145,128.606277600348L255.80768214285715,132.5039697919488L264.05954285714284,20.69595340979102L272.31140357142857,52.89162645947934L280.5632642857143,80.65951835048199" style="fill: none;" fill="none"></path></g><g><path stroke="rgb(0, 119, 187)" stroke-width="2px" d="M41.259303571428575,-21.188607274770725L49.51116428571429,37.89115189474823L57.763025000000006,55.50398551654818L66.01488571428571,59.791040254652515L74.26674642857142,80.50105746579172L82.51860714285715,101.44187025022508L90.77046785714286,109.95430693399908L99.02232857142857,113.07378679376842L107.2741892857143,113.54453691583872L115.52605000000001,124.29726253879072L123.77791071428572,131.06420713645218L132.02977142857142,134.385449678123L140.28163214285715,135.48316526663302L148.53349285714285,132.64209704381227L156.78535357142857,139.07484512490035L165.0372142857143,142.87686315369606L173.289075,145.3601478458643L181.54093571428572,145.80812429916858L189.79279642857145,133.56425381463768L198.04465714285715,138.84885889780523L206.29651785714287,143.3559235430956L214.5483785714286,146.3487513924837L222.80023928571433,102.62176907819509L231.05210000000002,109.9153724474907L239.30396071428575,122.98790035468339L247.55582142857145,131.20765649569034L255.80768214285715,134.471858776927L264.05954285714284,33.54689776343109L272.31140357142857,50.44743538659813L280.5632642857143,80.3916625211835" style="fill: none;" fill="none"></path></g></g></g></g></g><g><g opacity="0.980846"><span fill="rgb(0, 0, 0)" stroke="none" stroke-width="1px">Alt + Scroll to Zoom</span></g></g></g><g transform="translate(41, 177)" clip-path="url(#clip_1)"><clipPath id="clip_1"><rect width="288" height="21"></rect></clipPath><g><g><line x1="0" y1="0" x2="0" y2="5" style="visibility: inherit;" fill="rgb(0, 0, 0)" stroke="rgb(204, 204, 204)" stroke-width="1px"></line><line x1="41.259303571428575" y1="0" x2="41.259303571428575" y2="5" style="visibility: inherit;" fill="rgb(0, 0, 0)" stroke="rgb(204, 204, 204)" stroke-width="1px"></line><line x1="82.51860714285715" y1="0" x2="82.51860714285715" y2="5" style="visibility: inherit;" fill="rgb(0, 0, 0)" stroke="rgb(204, 204, 204)" stroke-width="1px"></line><line x1="123.77791071428572" y1="0" x2="123.77791071428572" y2="5" style="visibility: inherit;" fill="rgb(0, 0, 0)" stroke="rgb(204, 204, 204)" stroke-width="1px"></line><line x1="165.0372142857143" y1="0" x2="165.0372142857143" y2="5" style="visibility: inherit;" fill="rgb(0, 0, 0)" stroke="rgb(204, 204, 204)" stroke-width="1px"></line><line x1="206.29651785714287" y1="0" x2="206.29651785714287" y2="5" style="visibility: inherit;" fill="rgb(0, 0, 0)" stroke="rgb(204, 204, 204)" stroke-width="1px"></line><line x1="247.55582142857145" y1="0" x2="247.55582142857145" y2="5" style="visibility: inherit;" fill="rgb(0, 0, 0)" stroke="rgb(204, 204, 204)" stroke-width="1px"></line><line x1="288.815125" y1="0" x2="288.815125" y2="5" style="visibility: inherit;" fill="rgb(0, 0, 0)" stroke="rgb(204, 204, 204)" stroke-width="1px"></line></g><g transform="translate(0, 8)"><text x="0" y="0" dx="0em" dy="0.95em" style="text-anchor: middle; visibility: hidden; font-family: Roboto, sans-serif; font-size: 12px; font-weight: 200;" fill="rgb(50, 49, 63)" stroke="none" stroke-width="1px">-5</text><text x="41.259303571428575" y="0" dx="0em" dy="0.95em" style="text-anchor: middle; visibility: inherit; font-family: Roboto, sans-serif; font-size: 12px; font-weight: 200;" fill="rgb(50, 49, 63)" stroke="none" stroke-width="1px">0</text><text x="82.51860714285715" y="0" dx="0em" dy="0.95em" style="text-anchor: middle; visibility: inherit; font-family: Roboto, sans-serif; font-size: 12px; font-weight: 200;" fill="rgb(50, 49, 63)" stroke="none" stroke-width="1px">5</text><text x="123.77791071428572" y="0" dx="0em" dy="0.95em" style="text-anchor: middle; visibility: inherit; font-family: Roboto, sans-serif; font-size: 12px; font-weight: 200;" fill="rgb(50, 49, 63)" stroke="none" stroke-width="1px">10</text><text x="165.0372142857143" y="0" dx="0em" dy="0.95em" style="text-anchor: middle; visibility: inherit; font-family: Roboto, sans-serif; font-size: 12px; font-weight: 200;" fill="rgb(50, 49, 63)" stroke="none" stroke-width="1px">15</text><text x="206.29651785714287" y="0" dx="0em" dy="0.95em" style="text-anchor: middle; visibility: inherit; font-family: Roboto, sans-serif; font-size: 12px; font-weight: 200;" fill="rgb(50, 49, 63)" stroke="none" stroke-width="1px">20</text><text x="247.55582142857145" y="0" dx="0em" dy="0.95em" style="text-anchor: middle; visibility: inherit; font-family: Roboto, sans-serif; font-size: 12px; font-weight: 200;" fill="rgb(50, 49, 63)" stroke="none" stroke-width="1px">25</text><text x="288.815125" y="0" dx="0em" dy="0.95em" style="text-anchor: middle; visibility: hidden; font-family: Roboto, sans-serif; font-size: 12px; font-weight: 200;" fill="rgb(50, 49, 63)" stroke="none" stroke-width="1px">30</text></g><line x1="0" y1="0" x2="288.815125" y2="0" fill="rgb(0, 0, 0)" stroke="rgb(204, 204, 204)" stroke-width="1px"></line></g></g></g></g></svg>