<svg viewBox="0 0 329.98699951171875 199.9865264892578" xmlns="http://www.w3.org/2000/svg"><g><g><g><g><g><line x1="50" y1="177.987" x2="45" y2="177.987" style="visibility: inherit;" fill="rgb(0, 0, 0)" stroke="rgb(204, 204, 204)" stroke-width="1px"></line><line x1="50" y1="163.15475" x2="45" y2="163.15475" style="visibility: inherit;" fill="rgb(0, 0, 0)" stroke="rgb(204, 204, 204)" stroke-width="1px"></line><line x1="50" y1="148.3225" x2="45" y2="148.3225" style="visibility: inherit;" fill="rgb(0, 0, 0)" stroke="rgb(204, 204, 204)" stroke-width="1px"></line><line x1="50" y1="133.49025" x2="45" y2="133.49025" style="visibility: inherit;" fill="rgb(0, 0, 0)" stroke="rgb(204, 204, 204)" stroke-width="1px"></line><line x1="50" y1="118.65799999999997" x2="45" y2="118.65799999999997" style="visibility: inherit;" fill="rgb(0, 0, 0)" stroke="rgb(204, 204, 204)" stroke-width="1px"></line><line x1="50" y1="103.82574999999994" x2="45" y2="103.82574999999994" style="visibility: inherit;" fill="rgb(0, 0, 0)" stroke="rgb(204, 204, 204)" stroke-width="1px"></line><line x1="50" y1="88.99350000000001" x2="45" y2="88.99350000000001" style="visibility: inherit;" fill="rgb(0, 0, 0)" stroke="rgb(204, 204, 204)" stroke-width="1px"></line><line x1="50" y1="74.16125000000001" x2="45" y2="74.16125000000001" style="visibility: inherit;" fill="rgb(0, 0, 0)" stroke="rgb(204, 204, 204)" stroke-width="1px"></line><line x1="50" y1="59.328999999999986" x2="45" y2="59.328999999999986" style="visibility: inherit;" fill="rgb(0, 0, 0)" stroke="rgb(204, 204, 204)" stroke-width="1px"></line><line x1="50" y1="44.496749999999956" x2="45" y2="44.496749999999956" style="visibility: inherit;" fill="rgb(0, 0, 0)" stroke="rgb(204, 204, 204)" stroke-width="1px"></line><line x1="50" y1="29.664499999999954" x2="45" y2="29.664499999999954" style="visibility: inherit;" fill="rgb(0, 0, 0)" stroke="rgb(204, 204, 204)" stroke-width="1px"></line><line x1="50" y1="14.832249999999927" x2="45" y2="14.832249999999927" style="visibility: inherit;" fill="rgb(0, 0, 0)" stroke="rgb(204, 204, 204)" stroke-width="1px"></line><line x1="50" y1="0" x2="45" y2="0" style="visibility: inherit;" fill="rgb(0, 0, 0)" stroke="rgb(204, 204, 204)" stroke-width="1px"></line></g><g transform="translate(40, 0)"><text x="0" y="177.987" dx="0em" dy="0.3em" style="text-anchor: end; visibility: hidden; font-family: Roboto, sans-serif; font-size: 12px; font-weight: 200;" fill="rgb(50, 49, 63)" stroke="none" stroke-width="1px">0.46</text><text x="0" y="163.15475" dx="0em" dy="0.3em" style="text-anchor: end; visibility: inherit; font-family: Roboto, sans-serif; font-size: 12px; font-weight: 200;" fill="rgb(50, 49, 63)" stroke="none" stroke-width="1px">0.48</text><text x="0" y="148.3225" dx="0em" dy="0.3em" style="text-anchor: end; visibility: hidden; font-family: Roboto, sans-serif; font-size: 12px; font-weight: 200;" fill="rgb(50, 49, 63)" stroke="none" stroke-width="1px">0.5</text><text x="0" y="133.49025" dx="0em" dy="0.3em" style="text-anchor: end; visibility: inherit; font-family: Roboto, sans-serif; font-size: 12px; font-weight: 200;" fill="rgb(50, 49, 63)" stroke="none" stroke-width="1px">0.52</text><text x="0" y="118.65799999999997" dx="0em" dy="0.3em" style="text-anchor: end; visibility: hidden; font-family: Roboto, sans-serif; font-size: 12px; font-weight: 200;" fill="rgb(50, 49, 63)" stroke="none" stroke-width="1px">0.54</text><text x="0" y="103.82574999999994" dx="0em" dy="0.3em" style="text-anchor: end; visibility: inherit; font-family: Roboto, sans-serif; font-size: 12px; font-weight: 200;" fill="rgb(50, 49, 63)" stroke="none" stroke-width="1px">0.56</text><text x="0" y="88.99350000000001" dx="0em" dy="0.3em" style="text-anchor: end; visibility: hidden; font-family: Roboto, sans-serif; font-size: 12px; font-weight: 200;" fill="rgb(50, 49, 63)" stroke="none" stroke-width="1px">0.58</text><text x="0" y="74.16125000000001" dx="0em" dy="0.3em" style="text-anchor: end; visibility: inherit; font-family: Roboto, sans-serif; font-size: 12px; font-weight: 200;" fill="rgb(50, 49, 63)" stroke="none" stroke-width="1px">0.6</text><text x="0" y="59.328999999999986" dx="0em" dy="0.3em" style="text-anchor: end; visibility: hidden; font-family: Roboto, sans-serif; font-size: 12px; font-weight: 200;" fill="rgb(50, 49, 63)" stroke="none" stroke-width="1px">0.62</text><text x="0" y="44.496749999999956" dx="0em" dy="0.3em" style="text-anchor: end; visibility: inherit; font-family: Roboto, sans-serif; font-size: 12px; font-weight: 200;" fill="rgb(50, 49, 63)" stroke="none" stroke-width="1px">0.64</text><text x="0" y="29.664499999999954" dx="0em" dy="0.3em" style="text-anchor: end; visibility: hidden; font-family: Roboto, sans-serif; font-size: 12px; font-weight: 200;" fill="rgb(50, 49, 63)" stroke="none" stroke-width="1px">0.66</text><text x="0" y="14.832249999999927" dx="0em" dy="0.3em" style="text-anchor: end; visibility: inherit; font-family: Roboto, sans-serif; font-size: 12px; font-weight: 200;" fill="rgb(50, 49, 63)" stroke="none" stroke-width="1px">0.68</text><text x="0" y="0" dx="0em" dy="0.3em" style="text-anchor: end; visibility: hidden; font-family: Roboto, sans-serif; font-size: 12px; font-weight: 200;" fill="rgb(50, 49, 63)" stroke="none" stroke-width="1px">0.7</text></g><line x1="50" y1="0" x2="50" y2="177.987" fill="rgb(0, 0, 0)" stroke="rgb(204, 204, 204)" stroke-width="1px"></line></g></g><g transform="translate(50, 0)" clip-path="url(#clip_0)"><clipPath id="clip_0"><rect width="279" height="177"></rect></clipPath><g><g><g><line x1="0" y1="0" x2="0" y2="177.987" fill="rgb(0, 0, 0)" stroke="rgb(60, 60, 60)" stroke-width="1px" opacity="0.25"></line><line x1="39.99814285714286" y1="0" x2="39.99814285714286" y2="177.987" fill="rgb(0, 0, 0)" stroke="rgb(60, 60, 60)" stroke-width="1px" opacity="0.25"></line><line x1="79.99628571428572" y1="0" x2="79.99628571428572" y2="177.987" fill="rgb(0, 0, 0)" stroke="rgb(60, 60, 60)" stroke-width="1px" opacity="0.25"></line><line x1="119.99442857142857" y1="0" x2="119.99442857142857" y2="177.987" fill="rgb(0, 0, 0)" stroke="rgb(60, 60, 60)" stroke-width="1px" opacity="0.25"></line><line x1="159.99257142857144" y1="0" x2="159.99257142857144" y2="177.987" fill="rgb(0, 0, 0)" stroke="rgb(60, 60, 60)" stroke-width="1px" opacity="0.25"></line><line x1="199.99071428571432" y1="0" x2="199.99071428571432" y2="177.987" fill="rgb(0, 0, 0)" stroke="rgb(60, 60, 60)" stroke-width="1px" opacity="0.25"></line><line x1="239.98885714285714" y1="0" x2="239.98885714285714" y2="177.987" fill="rgb(0, 0, 0)" stroke="rgb(60, 60, 60)" stroke-width="1px" opacity="0.25"></line><line x1="279.987" y1="0" x2="279.987" y2="177.987" fill="rgb(0, 0, 0)" stroke="rgb(60, 60, 60)" stroke-width="1px" opacity="0.25"></line></g><g><line x1="0" y1="177.987" x2="279.987" y2="177.987" fill="rgb(0, 0, 0)" stroke="rgb(60, 60, 60)" stroke-width="1px" opacity="0.25"></line><line x1="0" y1="163.15475" x2="279.987" y2="163.15475" fill="rgb(0, 0, 0)" stroke="rgb(60, 60, 60)" stroke-width="1px" opacity="0.25"></line><line x1="0" y1="148.3225" x2="279.987" y2="148.3225" fill="rgb(0, 0, 0)" stroke="rgb(60, 60, 60)" stroke-width="1px" opacity="0.25"></line><line x1="0" y1="133.49025" x2="279.987" y2="133.49025" fill="rgb(0, 0, 0)" stroke="rgb(60, 60, 60)" stroke-width="1px" opacity="0.25"></line><line x1="0" y1="118.65799999999997" x2="279.987" y2="118.65799999999997" fill="rgb(0, 0, 0)" stroke="rgb(60, 60, 60)" stroke-width="1px" opacity="0.25"></line><line x1="0" y1="103.82574999999994" x2="279.987" y2="103.82574999999994" fill="rgb(0, 0, 0)" stroke="rgb(60, 60, 60)" stroke-width="1px" opacity="0.25"></line><line x1="0" y1="88.99350000000001" x2="279.987" y2="88.99350000000001" fill="rgb(0, 0, 0)" stroke="rgb(60, 60, 60)" stroke-width="1px" opacity="0.25"></line><line x1="0" y1="74.16125000000001" x2="279.987" y2="74.16125000000001" fill="rgb(0, 0, 0)" stroke="rgb(60, 60, 60)" stroke-width="1px" opacity="0.25"></line><line x1="0" y1="59.328999999999986" x2="279.987" y2="59.328999999999986" fill="rgb(0, 0, 0)" stroke="rgb(60, 60, 60)" stroke-width="1px" opacity="0.25"></line><line x1="0" y1="44.496749999999956" x2="279.987" y2="44.496749999999956" fill="rgb(0, 0, 0)" stroke="rgb(60, 60, 60)" stroke-width="1px" opacity="0.25"></line><line x1="0" y1="29.664499999999954" x2="279.987" y2="29.664499999999954" fill="rgb(0, 0, 0)" stroke="rgb(60, 60, 60)" stroke-width="1px" opacity="0.25"></line><line x1="0" y1="14.832249999999927" x2="279.987" y2="14.832249999999927" fill="rgb(0, 0, 0)" stroke="rgb(60, 60, 60)" stroke-width="1px" opacity="0.25"></line><line x1="0" y1="0" x2="279.987" y2="0" fill="rgb(0, 0, 0)" stroke="rgb(60, 60, 60)" stroke-width="1px" opacity="0.25"></line></g></g></g><g><g><line x1="0" y1="519.1287500000001" x2="279.987" y2="519.1287500000001" fill="rgb(0, 0, 0)" stroke="rgb(153, 153, 153)" stroke-width="1.5px"></line></g></g><g><g><line x1="39.99814285714286" y1="0" x2="39.99814285714286" y2="177.987" fill="rgb(0, 0, 0)" stroke="rgb(153, 153, 153)" stroke-width="1.5px"></line></g></g><g><g><g><g><g><path stroke="rgb(0, 119, 187)" stroke-width="2px" d="M39.99814285714286,159.40558969177306L47.99777142857143,121.4099202720821L55.997400000000006,109.54391941115259L63.99702857142857,107.0973413465917L71.99665714285715,93.37191817075013L79.99628571428572,74.36187223032114L87.99591428571429,66.36151598751545L95.99554285714287,61.394893558919414L103.99517142857144,60.90560446813701L111.99480000000001,53.174359435439094L119.99442857142857,45.29631441444156L127.99405714285714,39.571247481405706L135.99368571428573,37.83418059185144L143.9933142857143,42.33591428905723L151.99294285714285,36.53746946364639L159.99257142857144,29.858268911987523L167.9922,26.33515759989616L175.99182857142858,25.01400190874932L183.99145714285714,41.60191434755919L191.99108571428573,32.79418027088043L199.99071428571432,26.53089091762897L207.99034285714288,20.756934858709553L215.98997142857147,67.16889382138847L223.98960000000002,53.198803998380875L231.9892285714286,42.84969214633106L239.98885714285714,29.589157701879707L247.98848571428573,25.845868509113767L255.9881142857143,89.72649563685059L263.98774285714285,64.82013821214436L271.98737142857146,50.75222593381999" style="fill: none;" fill="none"></path></g><g><path stroke="rgb(238, 51, 119)" stroke-width="2px" d="M39.99814285714286,160.18850086092948L47.99777142857143,123.63632045596839L55.997400000000006,112.79791951313614L63.99702857142857,109.4216081893444L71.99665714285715,96.77271826103329L79.99628571428572,78.2030280819535L87.99591428571429,69.22400525048373L95.99554285714287,66.11684934034943L103.99517142857144,65.5541381536424L111.99480000000001,56.23258201614019L119.99442857142857,47.91413703024385L127.99405714285714,43.24115878179668L135.99368571428573,42.11573640838263L143.9933142857143,48.25667033627627L151.99294285714285,38.76386964753268L159.99257142857144,34.82484713703391L167.9922,30.641202182918768L175.99182857142858,29.68702436074611L183.99145714285714,47.47378126889465L191.99108571428573,38.592625096291286L199.99071428571432,30.86138006359336L207.99034285714288,27.509557506293024L215.98997142857147,72.35564992710947L223.98960000000002,64.45316034317015L231.9892285714286,47.42484793946144L239.98885714285714,35.53435831204053L247.98848571428573,30.78795796766874L255.9881142857143,93.37191817075013L263.98774285714285,73.99489436134695L271.98737142857146,56.061337464898806" style="fill: none;" fill="none"></path></g><g><path stroke="rgb(204, 51, 17)" stroke-width="2px" d="M39.99814285714286,160.0417008726299L47.99777142857143,122.33965353131295L55.997400000000006,110.81618597641587L63.99702857142857,108.05151916876434L71.99665714285715,95.69618501350283L79.99628571428572,76.95525028318166L87.99591428571429,67.87840499639509L95.99554285714287,65.01587152987716L103.99517142857144,64.82013821214436L111.99480000000001,56.917648628205036L119.99442857142857,46.86213675275443L127.99405714285714,42.97204757168886L135.99368571428573,40.50098074063656L143.9933142857143,48.476892420500505L151.99294285714285,40.598847399502965L159.99257142857144,34.99613589182494L167.9922,29.83382434904572L175.99182857142858,29.711468923687914L183.99145714285714,45.883470164090376L191.99108571428573,36.36622491240498L199.99071428571432,31.106046710759372L207.99034285714288,26.946802116036395L215.98997142857147,67.9517828887701L223.98960000000002,60.22053785607216L231.9892285714286,45.100581096708744L239.98885714285714,34.188758057951894L247.98848571428573,31.081557944267953L255.9881142857143,88.96805113241075L263.98774285714285,73.45662773758171L271.98737142857146,53.88387061044572" style="fill: none;" fill="none"></path></g><g><path stroke="rgb(51, 187, 238)" stroke-width="2px" d="M39.99814285714286,160.5065454004705L47.99777142857143,123.09809803575276L55.997400000000006,111.96605291277169L63.99702857142857,109.49498608171939L71.99665714285715,97.38436277717351L79.99628571428572,77.59138356581329L87.99591428571429,68.63684950083493L95.99554285714287,64.69782699033617L103.99517142857144,64.59996033146976L111.99480000000001,55.66987082943318L119.99442857142857,46.98444797456262L127.99405714285714,43.265603344738466L135.99368571428573,41.773203102350216L143.9933142857143,49.33320358380673L151.99294285714285,39.96271411687133L159.99257142857144,33.674980200678085L167.9922,30.885824626535143L175.99182857142858,29.980580133795712L183.99145714285714,47.008936741054036L191.99108571428573,39.32658083423969L199.99071428571432,31.20391336962578L207.99034285714288,28.63497987970707L215.98997142857147,70.83876091822981L223.98960000000002,60.19609329313038L231.9892285714286,47.42484793946144L239.98885714285714,36.04818037286398L247.98848571428573,32.500580294281214L255.9881142857143,92.66240699574351L263.98774285714285,73.43218317463993L271.98737142857146,56.50169322624801" style="fill: none;" fill="none"></path></g><g><path stroke="rgb(0, 153, 136)" stroke-width="2px" d="M39.99814285714286,182.3546581427008L47.99777142857143,146.73223309874535L55.997400000000006,134.96409889668226L63.99702857142857,132.22387665197252L71.99665714285715,118.54743100911377L79.99628571428572,98.55871848002076L87.99591428571429,88.99253989890218L95.99554285714287,85.95876188114283L103.99517142857144,86.20338432475924L111.99480000000001,78.57000595092771L119.99442857142857,70.91218301415442L127.99405714285714,65.30947150647638L135.99368571428573,63.98831581532954L143.9933142857143,71.57276085972785L151.99294285714285,63.00964922666549L159.99257142857144,56.72191531047222L167.9922,52.171248283833236L175.99182857142858,51.19258169516918L183.99145714285714,70.4717830492556L191.99108571428573,60.29395995199679L199.99071428571432,53.003070680648065L207.99034285714288,48.10987034797667L215.98997142857147,96.08765164896845L223.98960000000002,81.60378396868705L231.9892285714286,68.78364948913455L239.98885714285714,58.36111554116008L247.98848571428573,53.39453731611369L255.9881142857143,115.36685300305484L263.98774285714285,102.35094100221991L271.98737142857146,78.3253393037617" style="fill: none;" fill="none"></path></g><g><path stroke="rgb(238, 51, 119)" stroke-width="2px" d="M39.99814285714286,202.0008373657614L47.99777142857143,166.32945689059795L55.997400000000006,154.43898936495185L63.99702857142857,151.91898920446636L71.99665714285715,136.84796577453614L79.99628571428572,120.92063118129967L87.99591428571429,113.70316400587556L95.99554285714287,110.25343058615921L103.99517142857144,109.81307482481003L111.99480000000001,101.27445195823907L119.99442857142857,94.66862929895518L127.99405714285714,90.55836223721502L135.99368571428573,88.65000659286976L143.9933142857143,98.19174061104655L151.99294285714285,90.90085133969782L159.99257142857144,84.46631743520497L167.9922,80.96769488960503L175.99182857142858,80.38049493640659L183.99145714285714,100.36920746549964L191.99108571428573,92.5400957739353L199.99071428571432,83.87911748200654L207.99034285714288,79.915650408566L215.98997142857147,124.4436982898414L223.98960000000002,117.83791983410717L231.9892285714286,103.35405215382575L239.98885714285714,91.73271794006227L247.98848571428573,85.78747312635181L255.9881142857143,144.94618867620827L263.98774285714285,130.36449854061007L271.98737142857146,112.40645287767052" style="fill: none;" fill="none"></path></g></g></g></g></g></g><g transform="translate(50, 177)" clip-path="url(#clip_1)"><clipPath id="clip_1"><rect width="279" height="21"></rect></clipPath><g><g><line x1="0" y1="0" x2="0" y2="5" style="visibility: inherit;" fill="rgb(0, 0, 0)" stroke="rgb(204, 204, 204)" stroke-width="1px"></line><line x1="39.99814285714286" y1="0" x2="39.99814285714286" y2="5" style="visibility: inherit;" fill="rgb(0, 0, 0)" stroke="rgb(204, 204, 204)" stroke-width="1px"></line><line x1="79.99628571428572" y1="0" x2="79.99628571428572" y2="5" style="visibility: inherit;" fill="rgb(0, 0, 0)" stroke="rgb(204, 204, 204)" stroke-width="1px"></line><line x1="119.99442857142857" y1="0" x2="119.99442857142857" y2="5" style="visibility: inherit;" fill="rgb(0, 0, 0)" stroke="rgb(204, 204, 204)" stroke-width="1px"></line><line x1="159.99257142857144" y1="0" x2="159.99257142857144" y2="5" style="visibility: inherit;" fill="rgb(0, 0, 0)" stroke="rgb(204, 204, 204)" stroke-width="1px"></line><line x1="199.99071428571432" y1="0" x2="199.99071428571432" y2="5" style="visibility: inherit;" fill="rgb(0, 0, 0)" stroke="rgb(204, 204, 204)" stroke-width="1px"></line><line x1="239.98885714285714" y1="0" x2="239.98885714285714" y2="5" style="visibility: inherit;" fill="rgb(0, 0, 0)" stroke="rgb(204, 204, 204)" stroke-width="1px"></line><line x1="279.987" y1="0" x2="279.987" y2="5" style="visibility: inherit;" fill="rgb(0, 0, 0)" stroke="rgb(204, 204, 204)" stroke-width="1px"></line></g><g transform="translate(0, 8)"><text x="0" y="0" dx="0em" dy="0.95em" style="text-anchor: middle; visibility: hidden; font-family: Roboto, sans-serif; font-size: 12px; font-weight: 200;" fill="rgb(50, 49, 63)" stroke="none" stroke-width="1px">-5</text><text x="39.99814285714286" y="0" dx="0em" dy="0.95em" style="text-anchor: middle; visibility: inherit; font-family: Roboto, sans-serif; font-size: 12px; font-weight: 200;" fill="rgb(50, 49, 63)" stroke="none" stroke-width="1px">0</text><text x="79.99628571428572" y="0" dx="0em" dy="0.95em" style="text-anchor: middle; visibility: inherit; font-family: Roboto, sans-serif; font-size: 12px; font-weight: 200;" fill="rgb(50, 49, 63)" stroke="none" stroke-width="1px">5</text><text x="119.99442857142857" y="0" dx="0em" dy="0.95em" style="text-anchor: middle; visibility: inherit; font-family: Roboto, sans-serif; font-size: 12px; font-weight: 200;" fill="rgb(50, 49, 63)" stroke="none" stroke-width="1px">10</text><text x="159.99257142857144" y="0" dx="0em" dy="0.95em" style="text-anchor: middle; visibility: inherit; font-family: Roboto, sans-serif; font-size: 12px; font-weight: 200;" fill="rgb(50, 49, 63)" stroke="none" stroke-width="1px">15</text><text x="199.99071428571432" y="0" dx="0em" dy="0.95em" style="text-anchor: middle; visibility: inherit; font-family: Roboto, sans-serif; font-size: 12px; font-weight: 200;" fill="rgb(50, 49, 63)" stroke="none" stroke-width="1px">20</text><text x="239.98885714285714" y="0" dx="0em" dy="0.95em" style="text-anchor: middle; visibility: inherit; font-family: Roboto, sans-serif; font-size: 12px; font-weight: 200;" fill="rgb(50, 49, 63)" stroke="none" stroke-width="1px">25</text><text x="279.987" y="0" dx="0em" dy="0.95em" style="text-anchor: middle; visibility: hidden; font-family: Roboto, sans-serif; font-size: 12px; font-weight: 200;" fill="rgb(50, 49, 63)" stroke="none" stroke-width="1px">30</text></g><line x1="0" y1="0" x2="279.987" y2="0" fill="rgb(0, 0, 0)" stroke="rgb(204, 204, 204)" stroke-width="1px"></line></g></g></g></g></svg>