<svg viewBox="0 0 329.98699951171875 199.9865264892578" xmlns="http://www.w3.org/2000/svg"><g><g><g><g><g><line x1="41.171875" y1="177.987" x2="36.171875" y2="177.987" style="visibility: inherit;" fill="rgb(0, 0, 0)" stroke="rgb(204, 204, 204)" stroke-width="1px"></line><line x1="41.171875" y1="155.73862499999998" x2="36.171875" y2="155.73862499999998" style="visibility: inherit;" fill="rgb(0, 0, 0)" stroke="rgb(204, 204, 204)" stroke-width="1px"></line><line x1="41.171875" y1="133.49025" x2="36.171875" y2="133.49025" style="visibility: inherit;" fill="rgb(0, 0, 0)" stroke="rgb(204, 204, 204)" stroke-width="1px"></line><line x1="41.171875" y1="111.241875" x2="36.171875" y2="111.241875" style="visibility: inherit;" fill="rgb(0, 0, 0)" stroke="rgb(204, 204, 204)" stroke-width="1px"></line><line x1="41.171875" y1="88.9935" x2="36.171875" y2="88.9935" style="visibility: inherit;" fill="rgb(0, 0, 0)" stroke="rgb(204, 204, 204)" stroke-width="1px"></line><line x1="41.171875" y1="66.745125" x2="36.171875" y2="66.745125" style="visibility: inherit;" fill="rgb(0, 0, 0)" stroke="rgb(204, 204, 204)" stroke-width="1px"></line><line x1="41.171875" y1="44.49674999999998" x2="36.171875" y2="44.49674999999998" style="visibility: inherit;" fill="rgb(0, 0, 0)" stroke="rgb(204, 204, 204)" stroke-width="1px"></line><line x1="41.171875" y1="22.24837500000002" x2="36.171875" y2="22.24837500000002" style="visibility: inherit;" fill="rgb(0, 0, 0)" stroke="rgb(204, 204, 204)" stroke-width="1px"></line><line x1="41.171875" y1="0" x2="36.171875" y2="0" style="visibility: inherit;" fill="rgb(0, 0, 0)" stroke="rgb(204, 204, 204)" stroke-width="1px"></line></g><g transform="translate(31.171875, 0)"><text x="0" y="177.987" dx="0em" dy="0.3em" style="text-anchor: end; visibility: hidden; font-family: Roboto, sans-serif; font-size: 12px; font-weight: 200;" fill="rgb(50, 49, 63)" stroke="none" stroke-width="1px">1</text><text x="0" y="155.73862499999998" dx="0em" dy="0.3em" style="text-anchor: end; visibility: inherit; font-family: Roboto, sans-serif; font-size: 12px; font-weight: 200;" fill="rgb(50, 49, 63)" stroke="none" stroke-width="1px">1.2</text><text x="0" y="133.49025" dx="0em" dy="0.3em" style="text-anchor: end; visibility: hidden; font-family: Roboto, sans-serif; font-size: 12px; font-weight: 200;" fill="rgb(50, 49, 63)" stroke="none" stroke-width="1px">1.4</text><text x="0" y="111.241875" dx="0em" dy="0.3em" style="text-anchor: end; visibility: inherit; font-family: Roboto, sans-serif; font-size: 12px; font-weight: 200;" fill="rgb(50, 49, 63)" stroke="none" stroke-width="1px">1.6</text><text x="0" y="88.9935" dx="0em" dy="0.3em" style="text-anchor: end; visibility: hidden; font-family: Roboto, sans-serif; font-size: 12px; font-weight: 200;" fill="rgb(50, 49, 63)" stroke="none" stroke-width="1px">1.8</text><text x="0" y="66.745125" dx="0em" dy="0.3em" style="text-anchor: end; visibility: inherit; font-family: Roboto, sans-serif; font-size: 12px; font-weight: 200;" fill="rgb(50, 49, 63)" stroke="none" stroke-width="1px">2</text><text x="0" y="44.49674999999998" dx="0em" dy="0.3em" style="text-anchor: end; visibility: hidden; font-family: Roboto, sans-serif; font-size: 12px; font-weight: 200;" fill="rgb(50, 49, 63)" stroke="none" stroke-width="1px">2.2</text><text x="0" y="22.24837500000002" dx="0em" dy="0.3em" style="text-anchor: end; visibility: inherit; font-family: Roboto, sans-serif; font-size: 12px; font-weight: 200;" fill="rgb(50, 49, 63)" stroke="none" stroke-width="1px">2.4</text><text x="0" y="0" dx="0em" dy="0.3em" style="text-anchor: end; visibility: hidden; font-family: Roboto, sans-serif; font-size: 12px; font-weight: 200;" fill="rgb(50, 49, 63)" stroke="none" stroke-width="1px">2.6</text></g><line x1="41.171875" y1="0" x2="41.171875" y2="177.987" fill="rgb(0, 0, 0)" stroke="rgb(204, 204, 204)" stroke-width="1px"></line></g></g><g transform="translate(41, 0)" clip-path="url(#clip_0)"><clipPath id="clip_0"><rect width="288" height="177"></rect></clipPath><g><g><g><line x1="0" y1="0" x2="0" y2="177.987" fill="rgb(0, 0, 0)" stroke="rgb(60, 60, 60)" stroke-width="1px" opacity="0.25"></line><line x1="41.259303571428575" y1="0" x2="41.259303571428575" y2="177.987" fill="rgb(0, 0, 0)" stroke="rgb(60, 60, 60)" stroke-width="1px" opacity="0.25"></line><line x1="82.51860714285715" y1="0" x2="82.51860714285715" y2="177.987" fill="rgb(0, 0, 0)" stroke="rgb(60, 60, 60)" stroke-width="1px" opacity="0.25"></line><line x1="123.77791071428572" y1="0" x2="123.77791071428572" y2="177.987" fill="rgb(0, 0, 0)" stroke="rgb(60, 60, 60)" stroke-width="1px" opacity="0.25"></line><line x1="165.0372142857143" y1="0" x2="165.0372142857143" y2="177.987" fill="rgb(0, 0, 0)" stroke="rgb(60, 60, 60)" stroke-width="1px" opacity="0.25"></line><line x1="206.29651785714287" y1="0" x2="206.29651785714287" y2="177.987" fill="rgb(0, 0, 0)" stroke="rgb(60, 60, 60)" stroke-width="1px" opacity="0.25"></line><line x1="247.55582142857145" y1="0" x2="247.55582142857145" y2="177.987" fill="rgb(0, 0, 0)" stroke="rgb(60, 60, 60)" stroke-width="1px" opacity="0.25"></line><line x1="288.815125" y1="0" x2="288.815125" y2="177.987" fill="rgb(0, 0, 0)" stroke="rgb(60, 60, 60)" stroke-width="1px" opacity="0.25"></line></g><g><line x1="0" y1="177.987" x2="288.815125" y2="177.987" fill="rgb(0, 0, 0)" stroke="rgb(60, 60, 60)" stroke-width="1px" opacity="0.25"></line><line x1="0" y1="155.73862499999998" x2="288.815125" y2="155.73862499999998" fill="rgb(0, 0, 0)" stroke="rgb(60, 60, 60)" stroke-width="1px" opacity="0.25"></line><line x1="0" y1="133.49025" x2="288.815125" y2="133.49025" fill="rgb(0, 0, 0)" stroke="rgb(60, 60, 60)" stroke-width="1px" opacity="0.25"></line><line x1="0" y1="111.241875" x2="288.815125" y2="111.241875" fill="rgb(0, 0, 0)" stroke="rgb(60, 60, 60)" stroke-width="1px" opacity="0.25"></line><line x1="0" y1="88.9935" x2="288.815125" y2="88.9935" fill="rgb(0, 0, 0)" stroke="rgb(60, 60, 60)" stroke-width="1px" opacity="0.25"></line><line x1="0" y1="66.745125" x2="288.815125" y2="66.745125" fill="rgb(0, 0, 0)" stroke="rgb(60, 60, 60)" stroke-width="1px" opacity="0.25"></line><line x1="0" y1="44.49674999999998" x2="288.815125" y2="44.49674999999998" fill="rgb(0, 0, 0)" stroke="rgb(60, 60, 60)" stroke-width="1px" opacity="0.25"></line><line x1="0" y1="22.24837500000002" x2="288.815125" y2="22.24837500000002" fill="rgb(0, 0, 0)" stroke="rgb(60, 60, 60)" stroke-width="1px" opacity="0.25"></line><line x1="0" y1="0" x2="288.815125" y2="0" fill="rgb(0, 0, 0)" stroke="rgb(60, 60, 60)" stroke-width="1px" opacity="0.25"></line></g></g></g><g><g><line x1="0" y1="289.228875" x2="288.815125" y2="289.228875" fill="rgb(0, 0, 0)" stroke="rgb(153, 153, 153)" stroke-width="1.5px"></line></g></g><g><g><line x1="41.259303571428575" y1="0" x2="41.259303571428575" y2="177.987" fill="rgb(0, 0, 0)" stroke="rgb(153, 153, 153)" stroke-width="1.5px"></line></g></g><g><g><g><g><g><path stroke="rgb(0, 119, 187)" stroke-width="2px" d="M41.259303571428575,21.099107463777063L49.51116428571429,65.1933947533071L57.763025000000006,78.4540618084073L66.01488571428571,81.67223051306605L74.26674642857142,97.38945679423213L82.51860714285715,113.47782049839198L90.77046785714286,120.16528269347548L99.02232857142857,122.63433384266496L107.2741892857143,122.97384362590313L115.52605000000001,131.4634712780714L123.77791071428572,136.7023080059588L132.02977142857142,139.553184996441L140.28163214285715,140.38095392775534L148.53349285714285,138.59877289545537L156.78535357142857,143.17031283822655L165.0372142857143,146.57426906195283L173.289075,148.66994166818262L181.54093571428572,149.0212935823649L189.79279642857145,139.55567807663977L198.04465714285715,144.01083891396223L206.29651785714287,148.07467898753285L214.5483785714286,150.40541722995042L222.80023928571433,116.75885991168022L231.05210000000002,123.99369908210635L239.30396071428575,132.70096733120084L247.55582142857145,140.951458200261L255.80768214285715,143.87472734396158L264.05954285714284,60.01871505734324L272.31140357142857,84.16546984460949L280.5632642857143,104.99138876286149" style="fill: none;" fill="none"></path></g><g><path stroke="rgb(238, 51, 119)" stroke-width="2px" d="M41.259303571428575,19.62084351655841L49.51116428571429,63.44086546209454L57.763025000000006,76.65491987411677L66.01488571428571,79.83720413719118L74.26674642857142,95.4894777225405L82.51860714285715,111.4893370796442L90.77046785714286,118.15578048688172L99.02232857142857,120.57324609366059L107.2741892857143,120.91591201034188L115.52605000000001,128.902600515604L123.77791071428572,134.30720055457948L132.02977142857142,137.10010016937554L140.28163214285715,137.97834071364997L148.53349285714285,135.31350320246815L156.78535357142857,140.68079986591636L165.0372142857143,143.69385967996715L173.289075,145.77096679535506L181.54093571428572,146.17484578755497L189.79279642857145,135.9034481960982L198.04465714285715,140.5115356336981L206.29651785714287,145.10227759842573L214.5483785714286,147.37855264735222L222.80023928571433,112.60375718955696L231.05210000000002,117.45773129229248L239.30396071428575,128.7990183377713L247.55582142857145,137.34171677161754L255.80768214285715,140.2192750246525L264.05954285714284,58.365643752783534L272.31140357142857,78.04560774882138L280.5632642857143,100.52649430391192" style="fill: none;" fill="none"></path></g><g><path stroke="rgb(204, 51, 17)" stroke-width="2px" d="M41.259303571428575,19.205904796242713L49.51116428571429,63.30891786646843L57.763025000000006,76.69621483017504L66.01488571428571,79.92161081519723L74.26674642857142,95.79920315404236L82.51860714285715,111.93270752307772L90.77046785714286,118.58949687507749L99.02232857142857,121.04419955205917L107.2741892857143,121.37458572265506L115.52605000000001,129.63897418771683L123.77791071428572,135.10956128557027L132.02977142857142,137.84868728224933L140.28163214285715,138.74659398575128L148.53349285714285,136.73609719929098L156.78535357142857,141.61756148953737L165.0372142857143,144.75283527758717L173.289075,146.78192407701908L181.54093571428572,147.18841549900174L189.79279642857145,138.20993195083736L198.04465714285715,142.77135370109974L206.29651785714287,146.19920636375247L214.5483785714286,148.65747626718877L222.80023928571433,116.2827213769108L231.05210000000002,121.17894523237645L239.30396071428575,131.14146610048414L247.55582142857145,139.7918178590834L255.80768214285715,142.52331874345242L264.05954285714284,63.15020944190025L272.31140357142857,80.11681369033455L280.5632642857143,104.65720992770791" style="fill: none;" fill="none"></path></g><g><path stroke="rgb(51, 187, 238)" stroke-width="2px" d="M41.259303571428575,19.907176429599524L49.51116428571429,63.906779715836045L57.763025000000006,77.12210719008743L66.01488571428571,80.30976218444108L74.26674642857142,96.0297202449739L82.51860714285715,111.96725259710848L90.77046785714286,118.52532658208906L99.02232857142857,120.8900927170068L107.2741892857143,121.22331675548851L115.52605000000001,129.47096975666284L123.77791071428572,134.65254520636796L132.02977142857142,137.32744786579906L140.28163214285715,138.16674066250025L148.53349285714285,135.96552324083447L156.78535357142857,141.00573573884367L165.0372142857143,144.0659518996328L173.289075,146.00747788761555L181.54093571428572,146.3636037851572L189.79279642857145,136.25108701211212L198.04465714285715,141.05005421769619L206.29651785714287,145.03175525535642L214.5483785714286,147.1097110788971L222.80023928571433,114.24358069029451L231.05210000000002,118.19216884893179L239.30396071428575,128.27678434145452L247.55582142857145,136.6979053324163L255.80768214285715,139.09887417447567L264.05954285714284,56.91589109507203L272.31140357142857,77.2078399745822L280.5632642857143,99.00464123640954" style="fill: none;" fill="none"></path></g><g><path stroke="rgb(0, 153, 136)" stroke-width="2px" d="M41.259303571428575,5.303190023571252L49.51116428571429,48.400006534427405L57.763025000000006,61.54241141286492L66.01488571428571,64.73201578375696L74.26674642857142,80.55571515490115L82.51860714285715,96.80437861141561L90.77046785714286,103.67341130693256L99.02232857142857,106.09364847627282L107.2741892857143,106.46169607114791L115.52605000000001,114.78174122554063L123.77791071428572,120.24531322006881L132.02977142857142,123.19042333763838L140.28163214285715,124.11275692266226L148.53349285714285,121.14063401591777L156.78535357142857,126.56710155089199L165.0372142857143,130.38720325183868L173.289075,132.39998094145955L181.54093571428572,132.8066447572857L189.79279642857145,121.66422064085305L198.04465714285715,127.75749430154264L206.29651785714287,132.00184399035572L214.5483785714286,134.53043732088804L222.80023928571433,98.1179931769967L231.05210000000002,105.84402219083906L239.30396071428575,115.16072919894755L247.55582142857145,124.61688956540823L255.80768214285715,128.0650581794679L264.05954285714284,42.71453714114428L272.31140357142857,59.64812133800983L280.5632642857143,87.8634106158167" style="fill: none;" fill="none"></path></g><g><path stroke="rgb(238, 51, 119)" stroke-width="2px" d="M41.259303571428575,-1.3481092475652694L49.51116428571429,39.428392217874524L57.763025000000006,51.552665578544136L66.01488571428571,54.45572485935688L74.26674642857142,69.13341626402736L82.51860714285715,83.45644048829377L90.77046785714286,89.43434288446605L99.02232857142857,91.63904796619713L107.2741892857143,91.94319048938155L115.52605000000001,99.17650463734567L123.77791071428572,103.89928702515364L132.02977142857142,106.63119900253415L140.28163214285715,107.05870921236276L148.53349285714285,104.167041186288L156.78535357142857,108.07039585259557L165.0372142857143,111.75912018370629L173.289075,113.57261059020459L181.54093571428572,113.82858892571926L189.79279642857145,101.64755820733309L198.04465714285715,106.48542011623084L206.29651785714287,110.96177213524281L214.5483785714286,113.67083529782295L222.80023928571433,77.91244013522565L231.05210000000002,80.761540143013L239.30396071428575,91.97510987256467L247.55582142857145,101.36519035269319L255.80768214285715,105.40684466470778L264.05954285714284,20.422342278331516L272.31140357142857,35.35737790820002L280.5632642857143,63.050512756079435" style="fill: none;" fill="none"></path></g></g></g></g></g></g><g transform="translate(41, 177)" clip-path="url(#clip_1)"><clipPath id="clip_1"><rect width="288" height="21"></rect></clipPath><g><g><line x1="0" y1="0" x2="0" y2="5" style="visibility: inherit;" fill="rgb(0, 0, 0)" stroke="rgb(204, 204, 204)" stroke-width="1px"></line><line x1="41.259303571428575" y1="0" x2="41.259303571428575" y2="5" style="visibility: inherit;" fill="rgb(0, 0, 0)" stroke="rgb(204, 204, 204)" stroke-width="1px"></line><line x1="82.51860714285715" y1="0" x2="82.51860714285715" y2="5" style="visibility: inherit;" fill="rgb(0, 0, 0)" stroke="rgb(204, 204, 204)" stroke-width="1px"></line><line x1="123.77791071428572" y1="0" x2="123.77791071428572" y2="5" style="visibility: inherit;" fill="rgb(0, 0, 0)" stroke="rgb(204, 204, 204)" stroke-width="1px"></line><line x1="165.0372142857143" y1="0" x2="165.0372142857143" y2="5" style="visibility: inherit;" fill="rgb(0, 0, 0)" stroke="rgb(204, 204, 204)" stroke-width="1px"></line><line x1="206.29651785714287" y1="0" x2="206.29651785714287" y2="5" style="visibility: inherit;" fill="rgb(0, 0, 0)" stroke="rgb(204, 204, 204)" stroke-width="1px"></line><line x1="247.55582142857145" y1="0" x2="247.55582142857145" y2="5" style="visibility: inherit;" fill="rgb(0, 0, 0)" stroke="rgb(204, 204, 204)" stroke-width="1px"></line><line x1="288.815125" y1="0" x2="288.815125" y2="5" style="visibility: inherit;" fill="rgb(0, 0, 0)" stroke="rgb(204, 204, 204)" stroke-width="1px"></line></g><g transform="translate(0, 8)"><text x="0" y="0" dx="0em" dy="0.95em" style="text-anchor: middle; visibility: hidden; font-family: Roboto, sans-serif; font-size: 12px; font-weight: 200;" fill="rgb(50, 49, 63)" stroke="none" stroke-width="1px">-5</text><text x="41.259303571428575" y="0" dx="0em" dy="0.95em" style="text-anchor: middle; visibility: inherit; font-family: Roboto, sans-serif; font-size: 12px; font-weight: 200;" fill="rgb(50, 49, 63)" stroke="none" stroke-width="1px">0</text><text x="82.51860714285715" y="0" dx="0em" dy="0.95em" style="text-anchor: middle; visibility: inherit; font-family: Roboto, sans-serif; font-size: 12px; font-weight: 200;" fill="rgb(50, 49, 63)" stroke="none" stroke-width="1px">5</text><text x="123.77791071428572" y="0" dx="0em" dy="0.95em" style="text-anchor: middle; visibility: inherit; font-family: Roboto, sans-serif; font-size: 12px; font-weight: 200;" fill="rgb(50, 49, 63)" stroke="none" stroke-width="1px">10</text><text x="165.0372142857143" y="0" dx="0em" dy="0.95em" style="text-anchor: middle; visibility: inherit; font-family: Roboto, sans-serif; font-size: 12px; font-weight: 200;" fill="rgb(50, 49, 63)" stroke="none" stroke-width="1px">15</text><text x="206.29651785714287" y="0" dx="0em" dy="0.95em" style="text-anchor: middle; visibility: inherit; font-family: Roboto, sans-serif; font-size: 12px; font-weight: 200;" fill="rgb(50, 49, 63)" stroke="none" stroke-width="1px">20</text><text x="247.55582142857145" y="0" dx="0em" dy="0.95em" style="text-anchor: middle; visibility: inherit; font-family: Roboto, sans-serif; font-size: 12px; font-weight: 200;" fill="rgb(50, 49, 63)" stroke="none" stroke-width="1px">25</text><text x="288.815125" y="0" dx="0em" dy="0.95em" style="text-anchor: middle; visibility: hidden; font-family: Roboto, sans-serif; font-size: 12px; font-weight: 200;" fill="rgb(50, 49, 63)" stroke="none" stroke-width="1px">30</text></g><line x1="0" y1="0" x2="288.815125" y2="0" fill="rgb(0, 0, 0)" stroke="rgb(204, 204, 204)" stroke-width="1px"></line></g></g></g></g></svg>