<svg viewBox="0 0 329.98699951171875 199.9865264892578" xmlns="http://www.w3.org/2000/svg"><g><g><g><g><g><line x1="50" y1="170.87839911119625" x2="45" y2="170.87839911119625" style="visibility: inherit;" fill="rgb(0, 0, 0)" stroke="rgb(204, 204, 204)" stroke-width="1px"></line><line x1="50" y1="148.17724766411322" x2="45" y2="148.17724766411322" style="visibility: inherit;" fill="rgb(0, 0, 0)" stroke="rgb(204, 204, 204)" stroke-width="1px"></line><line x1="50" y1="125.47609621703018" x2="45" y2="125.47609621703018" style="visibility: inherit;" fill="rgb(0, 0, 0)" stroke="rgb(204, 204, 204)" stroke-width="1px"></line><line x1="50" y1="102.77494476994718" x2="45" y2="102.77494476994718" style="visibility: inherit;" fill="rgb(0, 0, 0)" stroke="rgb(204, 204, 204)" stroke-width="1px"></line><line x1="50" y1="80.07379332286412" x2="45" y2="80.07379332286412" style="visibility: inherit;" fill="rgb(0, 0, 0)" stroke="rgb(204, 204, 204)" stroke-width="1px"></line><line x1="50" y1="57.37264187578112" x2="45" y2="57.37264187578112" style="visibility: inherit;" fill="rgb(0, 0, 0)" stroke="rgb(204, 204, 204)" stroke-width="1px"></line><line x1="50" y1="34.67149042869806" x2="45" y2="34.67149042869806" style="visibility: inherit;" fill="rgb(0, 0, 0)" stroke="rgb(204, 204, 204)" stroke-width="1px"></line><line x1="50" y1="11.97033898161502" x2="45" y2="11.97033898161502" style="visibility: inherit;" fill="rgb(0, 0, 0)" stroke="rgb(204, 204, 204)" stroke-width="1px"></line></g><g transform="translate(40, 0)"><text x="0" y="170.87839911119625" dx="0em" dy="0.3em" style="text-anchor: end; visibility: inherit; font-family: Roboto, sans-serif; font-size: 12px; font-weight: 200;" fill="rgb(50, 49, 63)" stroke="none" stroke-width="1px">0.45</text><text x="0" y="148.17724766411322" dx="0em" dy="0.3em" style="text-anchor: end; visibility: hidden; font-family: Roboto, sans-serif; font-size: 12px; font-weight: 200;" fill="rgb(50, 49, 63)" stroke="none" stroke-width="1px">0.5</text><text x="0" y="125.47609621703018" dx="0em" dy="0.3em" style="text-anchor: end; visibility: inherit; font-family: Roboto, sans-serif; font-size: 12px; font-weight: 200;" fill="rgb(50, 49, 63)" stroke="none" stroke-width="1px">0.55</text><text x="0" y="102.77494476994718" dx="0em" dy="0.3em" style="text-anchor: end; visibility: hidden; font-family: Roboto, sans-serif; font-size: 12px; font-weight: 200;" fill="rgb(50, 49, 63)" stroke="none" stroke-width="1px">0.6</text><text x="0" y="80.07379332286412" dx="0em" dy="0.3em" style="text-anchor: end; visibility: inherit; font-family: Roboto, sans-serif; font-size: 12px; font-weight: 200;" fill="rgb(50, 49, 63)" stroke="none" stroke-width="1px">0.65</text><text x="0" y="57.37264187578112" dx="0em" dy="0.3em" style="text-anchor: end; visibility: hidden; font-family: Roboto, sans-serif; font-size: 12px; font-weight: 200;" fill="rgb(50, 49, 63)" stroke="none" stroke-width="1px">0.7</text><text x="0" y="34.67149042869806" dx="0em" dy="0.3em" style="text-anchor: end; visibility: inherit; font-family: Roboto, sans-serif; font-size: 12px; font-weight: 200;" fill="rgb(50, 49, 63)" stroke="none" stroke-width="1px">0.75</text><text x="0" y="11.97033898161502" dx="0em" dy="0.3em" style="text-anchor: end; visibility: hidden; font-family: Roboto, sans-serif; font-size: 12px; font-weight: 200;" fill="rgb(50, 49, 63)" stroke="none" stroke-width="1px">0.8</text></g><line x1="50" y1="0" x2="50" y2="177.987" fill="rgb(0, 0, 0)" stroke="rgb(204, 204, 204)" stroke-width="1px"></line></g></g><g transform="translate(50, 0)" clip-path="url(#clip_0)"><clipPath id="clip_0"><rect width="279" height="177"></rect></clipPath><g><g><g><line x1="17.305305906470814" y1="0" x2="17.305305906470814" y2="177.987" fill="rgb(0, 0, 0)" stroke="rgb(60, 60, 60)" stroke-width="1px" opacity="0.25"></line><line x1="53.01593247028955" y1="0" x2="53.01593247028955" y2="177.987" fill="rgb(0, 0, 0)" stroke="rgb(60, 60, 60)" stroke-width="1px" opacity="0.25"></line><line x1="88.72655903410828" y1="0" x2="88.72655903410828" y2="177.987" fill="rgb(0, 0, 0)" stroke="rgb(60, 60, 60)" stroke-width="1px" opacity="0.25"></line><line x1="124.43718559792703" y1="0" x2="124.43718559792703" y2="177.987" fill="rgb(0, 0, 0)" stroke="rgb(60, 60, 60)" stroke-width="1px" opacity="0.25"></line><line x1="160.14781216174578" y1="0" x2="160.14781216174578" y2="177.987" fill="rgb(0, 0, 0)" stroke="rgb(60, 60, 60)" stroke-width="1px" opacity="0.25"></line><line x1="195.8584387255645" y1="0" x2="195.8584387255645" y2="177.987" fill="rgb(0, 0, 0)" stroke="rgb(60, 60, 60)" stroke-width="1px" opacity="0.25"></line><line x1="231.56906528938325" y1="0" x2="231.56906528938325" y2="177.987" fill="rgb(0, 0, 0)" stroke="rgb(60, 60, 60)" stroke-width="1px" opacity="0.25"></line><line x1="267.27969185320194" y1="0" x2="267.27969185320194" y2="177.987" fill="rgb(0, 0, 0)" stroke="rgb(60, 60, 60)" stroke-width="1px" opacity="0.25"></line></g><g><line x1="0" y1="170.87839911119625" x2="279.987" y2="170.87839911119625" fill="rgb(0, 0, 0)" stroke="rgb(60, 60, 60)" stroke-width="1px" opacity="0.25"></line><line x1="0" y1="148.17724766411322" x2="279.987" y2="148.17724766411322" fill="rgb(0, 0, 0)" stroke="rgb(60, 60, 60)" stroke-width="1px" opacity="0.25"></line><line x1="0" y1="125.47609621703018" x2="279.987" y2="125.47609621703018" fill="rgb(0, 0, 0)" stroke="rgb(60, 60, 60)" stroke-width="1px" opacity="0.25"></line><line x1="0" y1="102.77494476994718" x2="279.987" y2="102.77494476994718" fill="rgb(0, 0, 0)" stroke="rgb(60, 60, 60)" stroke-width="1px" opacity="0.25"></line><line x1="0" y1="80.07379332286412" x2="279.987" y2="80.07379332286412" fill="rgb(0, 0, 0)" stroke="rgb(60, 60, 60)" stroke-width="1px" opacity="0.25"></line><line x1="0" y1="57.37264187578112" x2="279.987" y2="57.37264187578112" fill="rgb(0, 0, 0)" stroke="rgb(60, 60, 60)" stroke-width="1px" opacity="0.25"></line><line x1="0" y1="34.67149042869806" x2="279.987" y2="34.67149042869806" fill="rgb(0, 0, 0)" stroke="rgb(60, 60, 60)" stroke-width="1px" opacity="0.25"></line><line x1="0" y1="11.97033898161502" x2="279.987" y2="11.97033898161502" fill="rgb(0, 0, 0)" stroke="rgb(60, 60, 60)" stroke-width="1px" opacity="0.25"></line></g></g></g><g><g><line x1="0" y1="375.18876213494354" x2="279.987" y2="375.18876213494354" fill="rgb(0, 0, 0)" stroke="rgb(153, 153, 153)" stroke-width="1.5px"></line></g></g><g><g><line x1="17.305305906470814" y1="0" x2="17.305305906470814" y2="177.987" fill="rgb(0, 0, 0)" stroke="rgb(153, 153, 153)" stroke-width="1.5px"></line></g></g><g><g><g><g><g><path stroke="rgb(51, 187, 238)" stroke-width="2px" d="M17.305305906470814,157.28407138652963L24.44743121923456,132.03061377943203L31.589556531998305,123.89738183176058L38.73168184476205,121.74049576361266L45.8738071575258,114.44604682869176L53.01593247028955,103.31717286200323L60.1580577830533,97.6253826649792L67.30018309581705,95.55839616670892L74.44230840858079,95.39361637110838L81.58443372134454,89.85164074929286L88.72655903410828,85.01365290917411L95.86868434687204,81.74836630428682L103.01080965963578,80.66992327021286L110.15293497239954,84.9687031242353L117.29506028516327,79.77122525213147L124.43718559792703,76.88042096150268L131.57931091069077,73.83980209566538L138.7214362234545,73.06093408824569L145.86356153621827,83.93520987510016L153.005686848982,77.17996892627556L160.14781216174578,73.79487937260794L167.2899374745095,71.03887031303286L174.43206278727325,98.65890297599569L181.57418810003702,88.86307022321516L188.71631341280076,81.8532310945565L195.8584387255645,74.94820263240477L203.00056403832824,71.68294308939885L210.142689351092,109.11377372553419L217.28481466385574,97.76020495791427L224.42693997661948,87.84454219447206" style="fill: none;" fill="none"></path></g><g><path stroke="rgb(204, 51, 17)" stroke-width="2px" d="M17.305305906470814,156.19064960112294L24.44743121923456,132.01562149715863L31.589556531998305,124.64629233651485L38.73168184476205,122.69910878702491L45.8738071575258,115.35973712904656L53.01593247028955,103.96121857648782L60.1580577830533,98.04478770229514L67.30018309581705,95.78306390575892L74.44230840858079,95.55839616670892L81.58443372134454,90.10626599100829L88.72655903410828,84.65416287718901L95.86868434687204,81.74836630428682L103.01080965963578,80.66992327021286L110.15293497239954,84.60924015413156L117.29506028516327,79.08222975270805L124.43718559792703,75.6521904141016L131.57931091069077,73.42042412023078L138.7214362234545,72.6265638305377L145.86356153621827,82.54222659397992L153.005686848982,76.40110091885586L160.14781216174578,72.16223607016428L167.2899374745095,69.85558955057061L174.43206278727325,97.50557971619884L181.57418810003702,89.83667552890081L188.71631341280076,80.98446351725914L195.8584387255645,74.1992921276505L203.00056403832824,72.26710086043396L210.142689351092,107.49612270536396L217.28481466385574,99.39284826035792L224.42693997661948,87.3202994287678" style="fill: none;" fill="none"></path></g><g><path stroke="rgb(0, 153, 136)" stroke-width="2px" d="M17.305305906470814,148.02746015078608L24.44743121923456,125.14057759955371L31.589556531998305,117.51662319719446L38.73168184476205,115.41965213437742L45.8738071575258,108.76927597582248L53.01593247028955,97.6253826649792L60.1580577830533,91.66402906772905L67.30018309581705,89.73181073863115L74.44230840858079,89.22256025520026L81.58443372134454,84.18983511681559L88.72655903410828,78.72273972072293L95.86868434687204,76.16146795941381L103.01080965963578,74.7834498986856L110.15293497239954,79.41176228202772L117.29506028516327,73.8697595983308L124.43718559792703,70.69437256332115L131.57931091069077,68.9568915324892L138.7214362234545,68.46260626945036L145.86356153621827,78.72273972072293L153.005686848982,73.09089159091111L160.14781216174578,70.00535000201637L167.2899374745095,67.44407824070726L174.43206278727325,92.56272708581047L181.57418810003702,84.80395039051614L188.71631341280076,76.83547117656384L195.8584387255645,72.70147111814194L203.00056403832824,69.73575953990891L210.142689351092,102.67310008563726L217.28481466385574,92.00852681744075L224.42693997661948,83.74049963871556" style="fill: none;" fill="none"></path></g></g></g></g></g></g><g transform="translate(50, 177)" clip-path="url(#clip_1)"><clipPath id="clip_1"><rect width="279" height="21"></rect></clipPath><g><g><line x1="17.305305906470814" y1="0" x2="17.305305906470814" y2="5" style="visibility: inherit;" fill="rgb(0, 0, 0)" stroke="rgb(204, 204, 204)" stroke-width="1px"></line><line x1="53.01593247028955" y1="0" x2="53.01593247028955" y2="5" style="visibility: inherit;" fill="rgb(0, 0, 0)" stroke="rgb(204, 204, 204)" stroke-width="1px"></line><line x1="88.72655903410828" y1="0" x2="88.72655903410828" y2="5" style="visibility: inherit;" fill="rgb(0, 0, 0)" stroke="rgb(204, 204, 204)" stroke-width="1px"></line><line x1="124.43718559792703" y1="0" x2="124.43718559792703" y2="5" style="visibility: inherit;" fill="rgb(0, 0, 0)" stroke="rgb(204, 204, 204)" stroke-width="1px"></line><line x1="160.14781216174578" y1="0" x2="160.14781216174578" y2="5" style="visibility: inherit;" fill="rgb(0, 0, 0)" stroke="rgb(204, 204, 204)" stroke-width="1px"></line><line x1="195.8584387255645" y1="0" x2="195.8584387255645" y2="5" style="visibility: inherit;" fill="rgb(0, 0, 0)" stroke="rgb(204, 204, 204)" stroke-width="1px"></line><line x1="231.56906528938325" y1="0" x2="231.56906528938325" y2="5" style="visibility: inherit;" fill="rgb(0, 0, 0)" stroke="rgb(204, 204, 204)" stroke-width="1px"></line><line x1="267.27969185320194" y1="0" x2="267.27969185320194" y2="5" style="visibility: inherit;" fill="rgb(0, 0, 0)" stroke="rgb(204, 204, 204)" stroke-width="1px"></line></g><g transform="translate(0, 8)"><text x="17.305305906470814" y="0" dx="0em" dy="0.95em" style="text-anchor: middle; visibility: inherit; font-family: Roboto, sans-serif; font-size: 12px; font-weight: 200;" fill="rgb(50, 49, 63)" stroke="none" stroke-width="1px">0</text><text x="53.01593247028955" y="0" dx="0em" dy="0.95em" style="text-anchor: middle; visibility: inherit; font-family: Roboto, sans-serif; font-size: 12px; font-weight: 200;" fill="rgb(50, 49, 63)" stroke="none" stroke-width="1px">5</text><text x="88.72655903410828" y="0" dx="0em" dy="0.95em" style="text-anchor: middle; visibility: inherit; font-family: Roboto, sans-serif; font-size: 12px; font-weight: 200;" fill="rgb(50, 49, 63)" stroke="none" stroke-width="1px">10</text><text x="124.43718559792703" y="0" dx="0em" dy="0.95em" style="text-anchor: middle; visibility: inherit; font-family: Roboto, sans-serif; font-size: 12px; font-weight: 200;" fill="rgb(50, 49, 63)" stroke="none" stroke-width="1px">15</text><text x="160.14781216174578" y="0" dx="0em" dy="0.95em" style="text-anchor: middle; visibility: inherit; font-family: Roboto, sans-serif; font-size: 12px; font-weight: 200;" fill="rgb(50, 49, 63)" stroke="none" stroke-width="1px">20</text><text x="195.8584387255645" y="0" dx="0em" dy="0.95em" style="text-anchor: middle; visibility: inherit; font-family: Roboto, sans-serif; font-size: 12px; font-weight: 200;" fill="rgb(50, 49, 63)" stroke="none" stroke-width="1px">25</text><text x="231.56906528938325" y="0" dx="0em" dy="0.95em" style="text-anchor: middle; visibility: inherit; font-family: Roboto, sans-serif; font-size: 12px; font-weight: 200;" fill="rgb(50, 49, 63)" stroke="none" stroke-width="1px">30</text><text x="267.27969185320194" y="0" dx="0em" dy="0.95em" style="text-anchor: middle; visibility: inherit; font-family: Roboto, sans-serif; font-size: 12px; font-weight: 200;" fill="rgb(50, 49, 63)" stroke="none" stroke-width="1px">35</text></g><line x1="0" y1="0" x2="279.987" y2="0" fill="rgb(0, 0, 0)" stroke="rgb(204, 204, 204)" stroke-width="1px"></line></g></g></g></g></svg>